<svg version="1.2" xmlns="http://www.w3.org/2000/svg" viewBox="0 0 2998 1748" width="2998"
	height="1748">
	<title>stock-vector-hand-drawn-ink-brick-wall-vector-572205703-pdf</title>
	<defs>
		<clipPath clipPathUnits="userSpaceOnUse" id="cp1">
			<path d="m0 0h2998v1748h-2998z"/>
		</clipPath>
	</defs>
	<style>
		.s0 { fill: #ffffff }
		.s1 { fill: #8e8c8c }
	</style>
	<g id="Page 1" clip-path="url(#cp1)">
		<path id="Path 1" fill-rule="evenodd" class="s0" d="m0 0h2383.9c-7.4 3.4-15.7 4.3-23.8 4.9-51.3 1.3-102.7 0.8-154.1 1.9-20.7 0.3-41.4-0.1-62-0.6-34.6 2-69.5-4.4-104 1.7-8.4 1.7-17.1 0.7-25.7 1.5-16.6 2.8-33.5 0.3-50.3 1.6-10.7 1.3-21.4-1.8-32.1 0.5-26 0.5-52-0.4-78 0.7-19.8-3.2-39.9-3.7-59.9-2.6-11.9 1.5-24 1.8-36 0.9-18.7-3.7-37.8 1-56.4-3.3-43.2-1.7-86.4-2.1-129.6-1.2-37.4 2.1-74.7-2.2-112-1.5-28.6-1.9-57.4-3.6-85.9 0.3-25.3 1.4-50.8 2-76.2 0.6-18.4-1.5-36.9 0.5-55.3-0.4 0 1.8 0.1 5.4 0.1 7.2 27.1 0.6 54.5-2.6 81.2 2.9 23.5 0.6 47.1-0.7 70.6 0.5 13.1 2.1 28.4 1.5 38.7 11.2 0.7 21.7 3.5 43.3 4.2 65 3.2 19.3 1.8 38.8 2.2 58.2-0.6 13.9 1.2 28.2-2.8 41.7-20.2 0.2-40.5 1.3-60.7 0.6-52.7-0.5-105.4 0.1-158.1-1.9-23.5-2.5-47.1-0.5-70.6-1.5-38.8-3.7-78.2-6.4-117.1-1.5-15.2 3.5-30.9 0.8-46.3 2.6-9.2 0.8-18.5 1.3-27.8 0.8-2.8-1.6-5.4-3.6-8-5.4-1.6-29.8-3.6-60.1 2.6-89.6 3-19.2-5.7-38.1-1.8-57.3 1.6-4.7 3.8-9.1 6.5-13.3 2.6-3.6 5.3-8.2 10.5-7.7 25.3-0.8 50.7-0.4 76-0.7 19.3-0.3 38.7 0.6 58-1.3 25.8-0.5 51.7 0.7 77.4-2.9-0.2-1.7-0.4-5.3-0.5-7.1-19.6 1.4-39.2 2.3-58.8 0.7-15-0.7-30.1-0.7-44.9-2.9-21-0.3-42.2-1.7-63.1 1.3-9.9 0.7-20 0.3-29.8 2.4-18.5 4.6-37.7-0.7-56.2 3.7-22 1.7-44.1 1.4-66.2 2.5-32.3 3.1-64.9 1.7-97.3 1.6-53.4-4.1-107.1-3-160.6-2.8-23.5 0.9-47.2 0.1-70.6 2.7-20.3 0.6-40.8-0.8-61 2.3-8.9 1.3-17.6-0.8-26.3-2-80.7 0-161.4 0.9-242.2-0.2-26.5-2.2-53.3-3.1-79.8 0-26.7 0.9-53.4 0.4-80.1 0.6-11.3 0.5-22.1-3.4-33.4-2.8q-0.4 4.2-0.8 8.5c7.1-0.1 14.4-0.5 21.5 0.8 11.4 2.1 23.1 1.4 34.7 1.4 19.4-0.3 38.9 0.5 58.1-2 36.4-1.3 72.9-0.1 109.3 0.1 16.1 1.8 32.4 0.9 48.5 2.3 24 0.4 48.1-1.4 72 0 24.2 1.5 48.4-2.2 72.6 0.2 1 41.3-0.2 82.7 0.2 124.1 0.5 10.9-2.8 21.3-2.9 32.1 0.2 4.9-1.9 11.7-8 10.7-78 0.7-155.9 1.4-233.9 1.3-17.2 1.5-34.6-0.3-51.9 0.1-38.3-0.8-76.6 1.5-114.9-0.3 0.6 3 1.3 6 2.2 9 17.9 0.4 35.7 0.3 53.5 0.6 35.3 2.5 71-1.3 106.1 4 1.7 1.2 3.5 2.7 3.8 4.9 2.9 13 1.6 26.4 2 39.6 0.3 13.8-0.3 27.7-0.6 41.5 2.1-0.1 6.2-0.4 8.2-0.5-0.3-17.1 0.5-34.1-0.1-51.2-1.1-14.1 9.8-25.4 18.9-34.7 12-6.3 25.9-4.1 38.9-4.3 32.7-0.2 65.4 1.5 98 0.2 33.4-1.4 66.7 2 100-0.2 22.4-3.9 45.3-2.3 68-2.8 49.4-0.2 98.8-0.2 148.2 0.1 6.8-0.1 14.3 1.8 18.8 7.4 3.7 7.6 2.7 16.3 2 24.4-1.6 16.6-1 33.4-3.5 49.9-1 15.4-1.6 31 1.7 46.2 1.3 21.1 4.3 43-2.3 63.5-11 0.8-22 1.1-32.9 3.4-37.3 0.4-74.7-0.2-112 0.6-8 0.6-15.9 1.6-24 1.4-19.3-0.4-38.7 1.7-58.1 0.3-9.3-0.7-18.6 0.1-27.8 0.6-73.9 0.6-147.7-1.2-221.5-0.1-5.9-7.3-8.9-16.3-10-25.5-4.6-20.4-2.5-41.4-2.9-62.2 0.5-3.9-1.2-7.4-3.8-10.1-3.1 10.3-5.9 21-5.1 32 0.7 13.4-1.8 26.7-2.5 40.1-0.5 9-5.4 16.7-7.7 25.2-26.9 0.8-53.7 0.3-80.6-0.2-24.1 0.1-47.7-8.4-71.9-5.7 1.1 1.7 3.4 5.1 4.6 6.8 8.5 0 17.2-0.5 25.5 1.7 11.7 2.9 23.8 3.5 35.8 3.8 112.9 1 225.8-0.3 338.7 1.2 1.4 5.1 3.3 10 4 15.2 1.4 20-0.8 40.1 1.9 60 0.7 23.3 0.4 46.7 0.8 70 0.4 10.9-1.5 21.9-4.8 32.3-1.3 4.8-4.7 8.6-8.3 11.7-5.6 1.8-11.5 0.3-17.2 0.1-13.7-1.4-27.6-0.4-41.1-2.9-45.3-1.2-90.7-1-136-3.6-13.3-0.1-26.7-0.5-40-0.9-30.6 1.6-61.3 0.7-92 0.9-14.7-0.4-29.3 2.1-43.9 0.3-10.3-1.2-20.7 0.3-31-1.8-0.7 2.3-2.5 4.8-0.9 7.1 13.2 2.2 26.6 0.7 39.9 2 41.2 1.9 82.6 1.6 123.8-0.7 4.8-1.3 9.8 2.3 9.1 7.4 0 15.3-0.4 30.5-0.3 45.8-2.6 32.7-1.8 65.6-3.5 98.3-0.6 6-1.9 11.8-2.7 17.8-1.2 5.6-2.2 12.1-7.8 15.1-9.5 4.1-19.8 1.1-29.7 2.7-12.2 1.9-24.7 1-37 1.1-32.8 0-65.6-2-98.5-1.8-0.1 1.1-0.4 3.4-0.6 4.5 29.7 2.9 59.7 2.6 89.6 3.6 7.1 0.4 14.1 2.3 21.4 2.1 26.7 0.1 53.5-0.2 80.2 1.6 20.6-0.1 41.3-0.7 61.9-0.3 9.3 0.4 18.5-2.2 27.8-1.1 24.5 4.2 49.5 1 74.3 2.1 7.4 1.4 14.7 5.7 22.4 3.2 16.1-4.4 36.5-2.7 47.6 11.2 4.1 5.1 2.3 12.1 2.9 18.1-0.5 16 1.5 32.1-0.6 48-1.9 12.6-0.7 25.4-1.1 38.1-0.5 18.3 1.6 37.2-4.6 54.7-3.1 5.2-6 12.6-12.8 13.5-55.1 1.5-110.3 0-165.4 1.2-9 1.9-18.5 2.8-27.7 1.3-10.4-2.6-21.2-4.5-32-4-18.2 2.3-36.5 0.3-54.8 0.2-14 1.1-28 0.8-42-0.7-9.3 0.3-18.7 1.1-28-0.7-19.7-0.5-39.6-0.1-59.4 0.3 0.1 1.6 0.4 4.7 0.5 6.3 19.8 2.7 40.3-1.7 59.8 4 7.7 4 14.6-5.4 22.5-2.3 13.3 3.9 26.7-3 40.2-0.2 11.6 2.9 23.8-0.3 35.3 3.2 6.2 1.9 14.1 2.1 17.9 8.3 2.4 4.6 5 9.4 4.5 14.8-1.3 43.3 0.1 86.7-0.4 130.1-1.6 8.1-1.8 18.8-9.5 23.7-13.7 2.2-27.6 0.4-41.4 0.7-24.7 1.1-49.3 1.1-74 0.9-19.3-0.5-38.6-3.5-58-1.8zm1185.9 12.4c5.6 0.2 11.2 0 16.9 0q0.2-4.8 0.5-9.6c-7.3-0.3-15.9 1-17.4 9.6zm24.3-9.1q-4.3 2.4-3.8 7.5c3.5 1.5 7.4 1 11-0.1 1.1-4.6-2.1-9.8-7.2-7.4zm15.2 0.9q-1.6 4-3.1 8.1c6-0.1 11.9-0.1 17.9-0.2-3.4-5.2-8.5-8.2-14.8-7.9zm1159.6-4.2h12.3c-2.9 3.5-10.2 5.1-12.3 0zm19.5 0h91.6c-5.3 1-10.7 1.3-16.1 1.3-10 0-20 2.2-30 1-15.1-1.9-30.4-0.1-45.5-2.3zm111.9 0h119.7c-3.8 1.5-7.8 3.1-12 3q-32 0-64.1-0.4c-9.9-0.3-19.8-2.4-29.6-1.2-3.9 1.9-7.3 4.5-10.9 6.8q-1.6-4.1-3.1-8.2zm142.4 0h108.8c-11.1 1.6-22.5 0.7-33.6 2.2-25.1 1.6-50.2 0.4-75.2-2.2zm141.4 0h197.8v9.5c-3.8-1.8-7.8-3.5-12.1-3.6-15.7-0.4-31.6-5.4-47.3-1.4-13.4 1.9-27.1 0.6-40.6 1.1-21.3-0.5-42.8 0.9-63.9-2.2-11.4-0.5-22.9-0.1-33.9-3.4zm-280.2 9.1c10.7-0.1 21.5 1.1 32-1.2 6 1 11.8 3.1 17.9 2.8 26.7-0.5 53.4 0.8 80.1 1 32.7-0.5 65.4-1.1 98.1 0 6.5-0.3 12.6 2.5 17.4 6.8 5.4 8.2 3.1 18.2 3.9 27.5 2.9 19.1 1.4 38.6 2.3 58 0.4 19.2 2.4 38.6-0.3 57.7-4 10.4-12.4 18.4-21.7 24.1-21.2 1.8-42.8-1-63.8 3.2-47.1 0.2-94.3-0.1-141.4-0.3-15.4-2.2-31-1.1-46.5-1.5-25.4-0.6-50.7-0.4-76.1 0.1-6.7 0.1-13.3 2.5-20 1.3-4.4-6.5-6.3-14.4-11-20.7-0.6-24-0.2-47.9-0.3-71.9 1.1-19.8-5.2-39.4-1.5-59.2 2.6-8.7 5.6-17.5 11.4-24.7 21.8-1 43.8 0.5 65.5-2.7 17.9-0.8 36-0.1 54-0.3zm260.8 12.7c4.4-4.4 9.9-8.4 16-10.3 14.4-0.4 28.8 0.8 43.2 0.6 15.4 0.7 30.9-0.4 46.1 2.3 22.5 2.1 45.5-1.5 67.9 2.8 11.3 1.8 22.5-2.1 33.8-2.2 3.7 0 6.9-2 10.2-3.6v175.7c-26.6 0.1-53.2 0-79.8 0.4-17.3 2.5-34.8 0.7-52.2 1.4-12.2-0.1-24.8 1.4-36.7-2-15.1-3.5-31.2-5.3-44.4-14-5.7-10.1-3.5-22.1-2.2-33 0.9-14 1.9-28 1-42-1.2-16.6 0.9-33.4-1.2-50-1.4-8.6-2.4-17.4-1.7-26.1zm-608.8-6.7c12.6-0.4 25.3 0.4 37.9-1.6 47.4-0.4 94.8-1.9 142.1-1.5 8.9-0.7 18.1 1.7 25.8 5.9 5.9 13.3 2.2 28.1 3.3 42.1 1 20.6 0.5 41.4 0.9 62.1 1.5 12.6 0.7 25.3 0.9 38 0.3 8.9-1.7 18.3-7.2 25.4-15.5 1.9-31.2 0.2-46.8 1-1.8 5.5 2.9 8.3 7.1 10.3 11.2 0.7 22.9 1.5 32.9-4.5 1.5 1.7 2.9 3.4 4.5 5 4.1-0.8 8.1-2.4 12.4-2.4 4.7 0.5 9.2 2.6 14.1 2 5.2-0.5 10.5-2.1 15.8-1.3 14.8 2 29.9 1 44.7 3.8 9.6 2.7 19.7 1.9 29.6 2.2 24 0.3 48.1-1.6 72.1-0.4 7.7 0.5 15.8-0.5 23.1 2.7 4.2 8 4.2 16.9 4.3 25.8 3.5 13.1 1.9 26.9 2.4 40.3-0.3 35.4 1.9 70.7 0.8 106.1 0.5 5.8-3.5 10.3-7.1 14.3-30.5 1.2-61.1 0.1-91.6 0.3-30 0.7-60-3.4-90-1.2-4.9 0.1-9 3.5-13.8 3.5-42.1 0.4-84.2 0.6-126.3-0.3-21.7-3.5-43.8-0.8-65.7-2.6-10.5-1.2-20.3-5.8-30.9-7-1.5-4.4-5-8.3-4.7-13.1-0.2-7.3 1.2-14.8-1.9-21.6-3.5-7.4-0.5-15.3 0.3-23 0.1-21.5 0.6-43.1-3.8-64.3-0.6-18.7-0.6-37.4-0.1-56 4.2-3.3 9.1-6.3 14.6-6.8 17.4-1.1 34.9 0.9 52.3 0.3 21.3-0.5 42.9 0.2 63.9-3.7 11.1 1.9 22.5 2.1 33.8 2.1-0.3-1.8-0.8-5.2-1.1-7-3.9-5.3-11-3.1-16.6-3.4-9.5-0.4-18.6 2.5-28 2.2-32.6-0.2-65.3 1-97.9-0.2-9.2-3.2-19.1-3.1-28.2 0.5-18.6 0.1-37.4-0.5-55.9 1.6-21.3 0.9-42.7 1-64 1.2-28.5-0.1-57.1 1.4-85.6-0.2-6.7-4.3-9.4-12.5-11.6-19.8-1.6-26.1-0.9-52.4-3.5-78.5-0.3-8.5 2-16.8 2-25.3 0.7-15.8 4.7-31.2 7.6-46.7 16.4-0.6 32.8 0.8 49.1-0.7 18.5-4.3 37.7-2.7 56.4-4.3 8.5-1.5 17.1-0.9 25.6-1 34-0.2 68 0.2 102-0.3zm-725.4 15.6c3.3-6.1 7.6-11.7 13.3-15.8 52.7-0.8 105.4 0 158.1 0.3 10.7 0.1 21.4-0.3 32 1.2 50.6 1.9 101.3 1.7 152 2.2 27.3-0.2 54.7 1 82-0.9 10.7 0.7 21.4 0.8 32.1 1.2 8.2 24.1 6.1 50 6.5 75.1-0.5 22.7 0.9 45.3 0.4 68-1.3 5.7-3.1 11.4-4.5 17.1-2.5 4.6-5.3 9.2-7.4 14.1-23 0.6-46.1-0.9-69.1-1.3-52 0.8-104.1-0.9-156.1 0.5-47.3-0.7-94.6 0.6-141.9 0.2-26.7 0.5-53.4-0.9-80.1-0.3-2.7-0.3-6.6 0.6-7.9-2.6-4.2-7.5-7.2-15.8-9-24.2-0.4-18.1-0.8-36.2 0.1-54.3 3.3-15.4 2.2-31.2 1.7-46.8-2.1-11.1-3.6-22.4-2.2-33.7zm-837-11.6c16.9-2.3 33.6 1.9 50.3 3.9 41.3 2.4 82.7-0.5 124.1 0 14-0.4 28 1 41.9-1.5 15.3-0.8 30.7-0.4 46.1-0.7 10.9 0.2 21.9-0.7 32.6 1.7 8.1 1.7 16.4 1 24.6 2.2 3 3.2 7.3 6.3 7 11.2 1.5 31.8-1 63.6 0.4 95.4 0.6 15.4 0.9 31-1.3 46.3-1.4 4.9-4.2 9.2-6.1 13.8-11.8 0.6-23.5-0.7-35.2-0.8-34.7-0.4-69.4-0.2-104 1.2-80-1.4-160-0.2-240-1.1-9.4 0.4-18.6-1.6-28-1.3-25.7 0-51.4-0.1-77-0.1-4.2-9.1-9.2-17.8-12.3-27.2-3.1-30.6-1.6-61.4-2-92.1 0.3-8.4-0.8-17.2 1.9-25.4 3.8-5.9 7.6-11.8 11.1-17.9 19.4 0.3 39 1.4 58.2-1.2 24.1-1.3 48.2 0 72.3-1.9 11.6-3.1 23.7-2.3 35.4-4.5zm426.4 177.3c24.6-1.7 49.3-0.7 74-1.1 18.6 0.3 37.5-1.3 55.8 3.2 5.4 1.7 10.5 4.4 15.8 6.4 1.8 53.7 1.3 107.5 1.8 161.3-1.1 14.5-16.5 22.2-29.6 23.3-26.6 1.6-53.7 1.6-79.9-4.3-9.1-0.7-18.2 0.5-27.3-0.3-11.5-1-23.2-1.1-34.5 1.7-40 0.8-80.1-0.2-120.1 0.4-41.3 0.9-82.7-0.5-124 0.6-23.7 2.2-47.7 2.1-71.2-1.1-2.8-1.7-8-2.2-7.7-6.4-0.9-19.5 1-39-0.8-58.5-3.4-20.5 1.6-41 1.5-61.6 0.7-15.2 0.2-30.5 0.5-45.7 4-6.7 10.5-15.2 19.3-12.6 22.7 4.2 45.6-0.7 68.2-2.8 63.4-2.2 126.8-0.1 190.2-1 22.7 0.2 45.3-1.4 68-1.5zm1568.6 20.6c2.9-7.6 6.4-14.9 10.2-22 31.7 0.7 63.5 0.5 95.2-0.3 34-0.4 68 0.7 102 0.7 19.3 1.6 38.7 3 58 4 17.5 0.7 34.5-4.9 52-4.3q38 0.2 76-0.1v600.7c-17.8-8.1-37.8-3.6-56.7-4-57.1 1.7-114.2 0.2-171.3 0.6-10.7-0.9-21.3-1.9-32-2.5-10.6-0.6-21.3 0.1-31.7-2.4-10.8-1.2-21.8-1.6-32.6 0.2-9.7 2.9-19.8 1.1-29.7 1.4-6.4-0.1-12.8 0.6-19.1-0.3-9.6-4.5-9.5-16.1-11.6-25-1.2-10.9 0.6-22.2-3.2-32.8-2.8-7.3-0.9-15.2-0.6-22.8 2.2-28.9 0.8-57.9 3.9-86.7 3.2-8.1 11.1-15.6 20.4-14.6 28.1 0.3 56.4-1.9 84.3 2.2 20.6 0.5 41.3 0.9 61.9 0.8 52-0.6 104 1.8 156 2.8 19.3 0.6 38.5-3 57.9-1.8q-0.1-3.6-0.1-7.2c-47.3-1.1-94.6 1.2-141.9-0.8-17.2-3.4-35.1-1-51.9-6.4-2.7-5.8-5-11.8-7.5-17.6-3-6.8-2.5-14.4-4.5-21.5-4.5-36.9-4.4-74.2-3.4-111.3 2.1-17.5 6.3-36.8 20.3-48.7 17.8-2.4 35.3 2.4 53.1 1.9 28.7 0.4 57.4 0.3 86 1.3 15.9-1.6 34.3 5.2 48.2-5.3-4.2-3-8.8-5.9-14.2-5.7-16.7-0.4-33.3 0.1-50 0.1-53.3 0.5-106.7 0.1-160 0.3-46.1 0.1-92.1 0.9-138.2 1-9.3 0.7-17-5.9-24.5-10.6-3.5-12.5-2.7-25.5-3-38.3 0.2-31.3 0.9-62.7 0.5-94 0.2-10.3-0.9-20.9 1.8-31zm-1393.4-17.2c4.5-2.2 9.9-1 14.8-1.5 27.3-1 54.6 0.8 82 0.2 14.6-0.1 29.5-0.5 43.9 2.2 54.3 0.7 108.6-0.8 162.9 0.9 12 1.4 24.1 2.2 36.2 0.7 11.5-2 23.3-1.1 35-1.3 25.9 0.1 51.8-0.5 77.6 0.3 3.4 3 6.7 6 9.9 9.3 4.2 7.1 3.3 15.4 4.1 23.3 2.5 13.9 2 28.1 2.6 42.1 1 28.7 0.6 57.3 1.2 86 0 6.2 0 12.8-2.8 18.5-13.6 10-31 5.4-46.5 7.9-48.7 1.4-97.3 2.1-146 2.7-12.3 0.2-23.8-4.9-36.1-4-16 0.4-32-0.8-48 0.3-12.8 0.8-25.7-1.7-38.3 1.3-46.3 0.5-92.8 4.6-138.9-0.9-8-1.1-17.2 1.2-23.3-5.4-10.2-19.7-6.5-42.5-10.1-63.6-0.5-18.3-0.6-36.6 0-54.9 2.7-12.4 1.8-25.4 6.2-37.4 2.2-9.8 4.3-21.1 13.6-26.7zm481.7 4.8c5.4-2.6 10.5-7.1 17-6.5 44 0 88.1 0.2 132.1 0.2 61 2.4 122-0.4 183 0.5 38 6.5 76.7 3.2 115 4.9 6.2-0.2 7.4 7.4 7.1 12.1-0.8 22.1 1.4 44.1 1.8 66.2 0.2 8-0.4 16.1 1.8 23.8 3 11.1 5.2 22.6 4 34.2-2.2 12-2.4 24.4-1.6 36.6-7.7 6.3-16.4 11.6-26.2 13.9 0.1 1.2 0.4 3.5 0.6 4.6-11.4 0.5-22.7-4.7-33.9-1-7.9 2.6-15.6-2-23.5-1.1-4.6 0.8-10.6-1.7-14.3 1.2-0.3 1-0.8 3.1-1.1 4.1 11.5 2.6 23.5 1.3 35.2 0.6 9.6-0.4 19.5 2.4 28.9-0.4 8.3-2.7 17.4-2 25.7 0.5 14 1 28.1-0.5 42.1 1.6 25 3.2 50.2 2.5 75.4 2.6 34.1 0.2 68.1-1.7 102.2-1 11.1 0.1 24.7 7.5 25.1 19.8 1.2 24-1.9 48-1.4 72-0.4 25.1 0.6 50.2-0.6 75.3-5 9.8-11.3 23.1-24.2 23-51 1.3-102.1-0.3-153.1 1.6-32-0.1-64 0.6-96 1.2-12.8 0.7-26.3-3.1-38.5 2-11.2 1.1-22.4 0.3-33.6 0.2-6.8 0.3-13.1-3.1-19.9-2.8-5-0.5-9.5 2.1-14.3 2.7-18.9 0.9-37.9 2.3-56.7 0.1-1-5.2-2.2-10.3-4.4-15-4.2-8.1-3.1-17.5-4.1-26.2-3.4-19.3 0.5-39.1-3.8-58.3-1.2-25.2-1.9-50.5-0.6-75.8-0.1-8.3 6.5-14.7 12.4-19.7 11.1-1.3 22.3-0.2 33.5-0.4 19.3 0.8 38.5-0.7 57.8-1.3 4-0.2 7.9-1.5 11.6-3-0.4-0.9-1.2-2.5-1.6-3.4-5.5-2-11.7-0.2-17.2-2.4-8.5-3-17.7-1.6-26.6-1.9-27.3 0.4-54.7 0-82 0.9-24-1.4-48 0.5-72-0.1-41.4 1-82.7-0.9-124.1-0.8-9.9 0.7-19.3-3.1-29.2-3.8-2.5-5.5-4.5-11.2-6.9-16.7-5.1-11.1-2.1-23.6-4.3-35.2-0.5-22.7-0.5-45.5-1-68.2-1.8-12.9-3.2-26-1.8-38.9 2.1-7.5 4.9-14.8 6.2-22.5zm-990.6 195.1c9.4-0.1 18.4-3.4 27.8-3.1 56.6-1.3 113.3-0.1 169.9-0.6 13 0.5 27.4-3 38.7 5.2 1.2 28.3 0.7 56.5 0.3 84.8-0.4 27.3 0.3 54.7-0.3 82-0.8 8.3-2.3 16.6-2.2 25-8.8-0.3-17.6 0.8-26.4 0.9-46.1 0-92.3 1.8-138.3-0.8-28.6 0-57.3-3.3-85.8-0.6-38 0.1-76 2.2-114 0.8-33.4-1.2-66.7 0.4-100.1 0.7-7.4-1.7-14.9-3.3-22.6-2.4-3.8-4.4-6.4-9.5-8.9-14.7-4.2-7.6-2.8-16.5-3.8-24.7-1.9-16-4.5-32-3.7-48.2-0.3-17.8-0.9-35.6-0.3-53.3 0-10.4 3.9-20.3 4.8-30.5 0.6-5.9 1.1-11.8 2-17.6 76.8-1.3 153.7-3.7 230.6-3.6 10.8-0.5 21.5 2.7 32.3 0.7zm282.7-2.8c18.2-1.3 36.6-0.4 54.9-0.4 10.9-0.4 21.3 3.6 32.2 2.9 37.2 3.1 74.6 2.9 111.9 2.6 57.4 1.5 114.7-1.7 172-1.6 20 0.7 40-1.3 60.1-1 6.6-0.6 10.7 5.5 14.4 10.1 6.8 8.3 15 17 14.7 28.5 0.7 41.4 0.8 82.8 0.8 124.2 0.3 5.3-3.4 9.6-5.5 14.2-3.3 6.5-8.1 13.4-15.2 16-43.7 0.9-87.5 1.8-131.3 2-38 1.5-76-0.5-114 0.5-30.6-1.4-61.3-1-92-0.3-26.7 0.1-53.3-0.2-80-0.3-8.7 0.2-17.3-2-26.1-1.4-9.5 0.1-21-0.9-26.4-10-5.6-19.2 1.4-39.3-1.3-58.9 0.2-12.3-5.7-23.6-5.7-35.9-0.1-10.3-0.6-20.8 2-30.8 2.6-13.4-2.1-27.4 1.3-40.6 7.9-10.6 21.1-15.6 33.2-19.8zm600.9 2.2c5.4-0.2 10.5-2.6 16.1-2.5 45.6-0.4 91.3-0.5 137 0 8.5-0.4 16.5 3.2 24.9 2.8 44.1 0.3 88.1-1.3 132.2 0 4.2-0.3 8.3 2.1 10.7 5.5 6.1 8.7 12.3 17.3 18.3 26.1 2.4 4.6 1.7 10.1 2.5 15.1 2.7 18.5-0.5 37.4 3.3 55.8 1.5 24.7 2.7 49.5 1.6 74.2 0.2 7.6-4.1 14.2-8.3 20.2-3.5 4.1-9.4 3.5-14.1 4.1-20.1-0.3-40.2-0.9-60.2-0.1-41.2-2.8-82.6-3.6-123.8-2.8-9.4-2.2-18.7 1.3-28.1 1.2-21.3-0.2-42.7 1-64-0.9-20.7-0.5-41.5-0.1-62.2-1-13-2.9-26.5-1.9-39.8-2.4-22.6-0.5-45.2 0.2-67.7-0.6-5.1-3.9-7.4-10.5-9.3-16.4-0.6-19.1-0.1-38.3-0.3-57.5-4.2-33.6-1.8-67.6-1.9-101.4 9.9-6.1 21.1-10.2 32.6-12.3 6.3-1.6 11.9-5.9 18.7-5.5 19.3 0.1 38.5-1 57.7 0.4 8.2 2.1 16-1.8 24.1-2zm1125.9 2.4c15.8 2.6 31.4-4.7 47.3-1.5 7 1.7 14.3 6.6 15.9 14 0.4 10.7-0.2 21.4-1.6 31.9-0.6 18.7-1.3 37.5 1.4 56-0.6 12.2 3.7 23.9 3.4 36 0 12 0.3 24-0.3 35.9-1.7 7.3-5.2 14.1-6.6 21.5-0.2 5-6.1 5.3-9.7 6.9-14.4 3.6-29-2-43.6-1.5-28-0.9-56-0.5-84-0.1-24-1.3-48.1 0.3-72-2.9-12.7-0.6-25.4-0.5-38.2-0.6-1 3.8-4.7 4.1-8 4.4-3.9-5.7-11.4-6.6-17.7-6.6-25.4-0.1-50.7-1.6-76.1-2.2-10.1-0.4-16.5-9.5-21.2-17.4-2.9-12.3-6.5-24.6-6-37.3 0.2-14.4-1.1-29 1.7-43.3 1.2-22.9 3.8-45.8 4-68.8-0.6-10.1 5.1-21 13.7-26.1 77.2-1.4 154.5-0.1 231.8-0.7 22 0.3 44.1-1.2 65.8 2.4zm-2505.1 193.3c8.9-2.4 18.2-1.5 27.3-1.5 23.4 0.7 46.7 0.9 70 1.5 4.6-0.1 9.1 1.1 13.7 2 12.7 1.3 25.7-0.3 38.4 1.2 10.6 1.9 21.4 2.2 31.9 4.9 29.1 0.9 58.3-1.4 87.4 1.1 26.8 3.8 53.7-1.6 80.6-0.4 34-0.9 68-1.4 102-0.3 7.7 0.5 15 2.9 22.6 4.2 1.5 2.6 3.4 5.2 3.1 8.4 0.5 30.6 0.1 61.3-0.2 92-0.3 8.2 0.1 16.4-1.7 24.5-2.1 10 2.2 21-3.6 30.1-0.5 8.3-2.9 16.9-9.3 22.5-8.1 1.7-16.6-0.3-24.9-0.2-18.5-1.8-37.2-1.2-55.8-1.8-19-4-38.7-2.9-57.9-2.4-26.9 6.4-54.9 5.3-82.3 4.4-15.4 1.2-30.7-1.4-46-1.4-10 0-20-0.7-30-0.5-6-0.2-11.7 2.9-17.7 1.4-9.3-2.3-19.2-2.3-28.5 0.2-6.9 1.8-12.8-3.7-19.7-3.5-33.4-0.2-66.8 0-100.2-0.1-4.7 0.3-8.9-1.8-13.3-3.2-4.6-17.6-7.4-35.9-5.2-54 6.4-34.7 2-70.3 6.9-105.2 1.9-8.9 4.5-18.4 12.4-23.9zm514.7 4.5c21.5 1.5 43.1 0.6 64.6 1.1 23.3 0.7 46.7 0.9 70 1.3 26-0.9 52.1-0.8 78.1-1.6 6.2-0.6 11.6 3.6 17.7 2.9 12.5-0.2 25-0.3 37.4 0.3 15 1 29.9-1.2 44.8-0.6 15.4-0.4 30.6 2.1 46 2.3 24.1 0.5 48.1 0.9 72.2 1.4 9.1-0.6 16.8 5.3 25.7 6.5 2.2-0.5 4.5-0.8 6.8-1 2.2 5.1 2.9 10.5 2.6 16-0.4 12.7 0.4 25.5-1.8 38.1-1.7 26.6 0.5 53.4-2.1 80-0.3 7 0.6 14.3-2.1 20.9-7.1 7.4-15.6 13.1-25.3 16.3-15.3 0.7-30.7 0-46 1-34.6 1.2-69.3-0.2-103.9 1.2-52 1.6-104 2.4-156.1 1.8-20.6-0.8-41.3 0.7-62 0-20 0.3-40-2-60-1.6-8.3-0.1-16.7 0.4-25-0.6-5-3.5-9.5-8.4-9.7-14.8-0.1-8.8-2.7-17.3-2.4-26.1 0.1-26.4-0.1-52.8 0.3-79.2 1.4-18.4 2.3-37.6 11.2-54.3 3.3-7.4 12.5-8 19-11.3zm1490.8 1.7c47.9 0 96-3.6 143.9-0.1 20 1.1 40-0.8 59.9-0.1 24.7 8.2 51.3 3.9 76.8 6.1 14.1 3.6 28.9 1.6 43.3 2.3 5.2 0.7 9.3-2.7 13.7-4.8 1.7 1.6 3.4 3.1 5.2 4.6 9.7 0.8 19.4-0.2 29 0 7.7-0.3 14.8 5.7 16.7 13 0.6 55.6-0.6 111.2 0.3 166.8-3.4 1.7-7 3.4-10.8 3.2-28.7 0.3-57.5 0.3-86.2 0.4-29.3-0.5-58.7 1.2-87.9-2.1-12.3-0.4-25 2.1-36.9-1.9-7.4-3-15.4-2.9-23.2-2.7-9.6 0.4-19.4 0.2-28.6 3.1-22.3 3.8-44.9 2.2-67.4 2.7-22.1 0.5-44.1-1.9-66.2-2.3-5.3 0.1-10-2.6-14.8-4.4-1.1-17-0.4-34-1.8-50.9-0.1-7.4-2.4-14.5-2.3-21.9 0.1-14 0.3-28-0.4-42-1.4-7.4-1.7-14.9-1.8-22.4-0.2-8.2-1.3-16.7 2.1-24.4 2.2-7.4 6.9-13.5 11.4-19.6 8.7-0.1 17.4-0.9 26-2.6zm-932 2.7c8 0.4 15.6-3 23.7-2.8 21.4-0.3 42.7 0 64.1-0.6 25.2-0.7 50.4 0.9 75.6 0.6 7.3 1.9 14.8 2.8 22.3 2.6 23.3 2.2 46.7 0.9 70.1 1.2 12.6 0.5 25.1-2.2 37.7-1.1 22.9 5.1 46.6 2 69.9 3.2 15.4 5.2 32 3.2 48 5.6 0.2 19.2 0.6 38.4 0.9 57.6-0.8 28-0.4 56 0.2 84-0.3 7.8 1 15.8-1 23.3-5.8 2.4-11.1 6.7-17.6 6.5-6.6 0.4-13.4-2-19.8 0.3-9.8 3.6-20.5 1.2-30.4 4.3-12.5 2.9-25.3 0.1-37.9 0.6-10.1 0.5-19.8-3.3-29.9-2.6-23.7-1.9-47.4-1.5-71-3.3-13.3-4.1-27.4-4.4-41.1-5.5-22.6 2-45.4 1.1-68.1 1.4-28.7 0-57.4 0.8-86.1 0-30.2-1-60.3 1.7-90.5 1.2-2.2-5.8-2.6-12.1-2.8-18.3 0.1-4.8-3.2-9-3.2-13.8-0.3-22 0.2-44.1 1.7-66.1 3.3-19.2 8.1-39.4 2.1-58.5-0.9-3.5-0.6-7.3 2.5-9.6 6.2-5.6 13.8-10.2 22.3-10.8 19.4-0.6 38.8 0.5 58.3 0.6zm632.1 3.6c33.1-2 66.4-0.2 99.6-2.2 28-1.9 56.1 0.7 84.1 0.2 17.8 0.9 35.8-1.9 53.5 1.1 8.4 5.4 12.9 15.6 13.4 25.5 0.9 24-0.2 48.1 0.4 72.2 3.4 21.1 2.1 42.7 3 64.1 0.8 8.1-4.1 15.4-9.1 21.3-23.5 2.5-47.5 1-71.2 1.4-54.7-1-109.3 0-164-0.5-44.7-0.2-89.4 0-134 0-17.2 0.1-34.5 1.5-51.7 0-8.4-3.8-18.5-4.5-25.6-10.8-3-11.3-6.8-22.3-9.2-33.7-0.7-4 0.6-7.9 1.1-11.8 2.1-16-0.7-32.1 1.2-48.1 0.1-8.1 4.2-15.7 3-23.9-3-16-4-32.7-2.2-48.9 7.4-3.3 15.3-5 23.4-4.4 47.4 1.1 94.7 0.6 142.1 0.6 14-1 28.4 1.6 42.2-2.1zm-770.3 183.9c54 0.2 108 0.6 162-0.8 39.4-1.2 78.7 2 118.2 2 7.9-0.5 15.3 2.5 22.7 4.8 3.2 1.2 4.4 4.5 5.3 7.4 2.7 30.4 1 61.1 4.5 91.4 0.5 19.4 1.1 38.7 0.6 58.1 0 8.9-5.1 16.8-10.3 23.6-35.7-0.5-71.4 2.7-107 0.1-10.6-1.3-21.2-2.1-31.8-1-21.3 2.9-42.8 1.3-64.2 1.1-16 0.8-32 0.8-48 0.3-28.7-2.3-57.4 0.9-86.1-1-28-2-56 0.3-83.9-1.5-20-0.5-39.9-0.1-59.8 0-3.3-5.2-7.8-9.9-9.9-15.7-1.4-14-0.4-28.2-1.5-42.2-3.6-21.8-1.5-44-1.8-66-3.5-1-7-2.3-10.4-3.4 1 25.2 1.8 50.4 2.9 75.6 0.1 8.1-1 16.1-1.5 24.1-0.4 9.4-4.6 18-7.1 26.9-2.9 3.1-6 7.3-10.9 6.5-18-0.1-36.1-0.5-54.1-0.7-9.9-2.1-19.9-3.9-30-5-7.4-0.6-14.5 2.6-21.9 1.6-5.9-0.7-11.7-1.9-17.6-1.3-15.2 1.7-30.5 0.5-45.8 0.4-29.5-0.6-59-1.4-88.5 0-15.4 0.3-30.8 1.5-46.2 0.6-41.3-4.9-82.6 1.7-123.9 1.6-17-0.1-34.1 0.8-51-1.4-1-6.5-4-12.6-4-19.2 0.2-24.7-4.9-49.5-0.4-74 0.5-13.1 1.1-26.4-1.6-39.3-1.9-10.2 0.7-20.3 3.4-30.1 2.1-8.2 7.8-14.7 11.2-22.3 34.8-0.5 69.6 0.2 104.4 0.5 6.1-0.4 11.8 2 17.9 2.1 30 0.7 60 2 90.1 2.2 47.3-0.5 94.7-0.7 142-1.4 37.5 0 75-0.6 112.4 1.3-0.6 8.3 4.9 14.9 11.2 19.5 6.7 5 7.9 13.7 7.7 21.5-0.1 6.2 7.5 6.3 11.7 8.3 0.2-6.1-0.1-12.2 0.3-18.3 2.4-14.2 13.2-24.3 21.6-35.2 56.4-1.3 112.7-1.2 169.1-1.7zm324.7 5c2.5-2.2 6.2-0.9 9.2-1.2 51.4 1.3 102.7 2 154.1 2.7 59.3-0.3 118.7-1.3 178-1.4 32.3-0.4 64.6 0.7 96.7 2.8 10.7 4.6 26.5-0.5 33 11.3 2.4 13.1 1 26.5 2.8 39.6 0.7 27.4-0.2 54.7 1.1 82 2.1 12.3-0.4 25.2-4.9 36.8-6.4 7.5-14.3 15.5-24.7 16.2-32.4-0.2-64.9-0.9-97.2-4-8.3-4.8-18.3-2.3-27 0-5.7 1.9-10-4.3-15.6-3.3-17.4 1.9-34.8 0.1-52.2 0.7-28-0.5-56-0.4-84 0-21.3 0.3-42.7-1.6-64-0.2-29.4 0.4-58.8 0.3-88.2 0.5-6.1 0.6-10.2-4.6-14-8.5-6.1-7.3-5.6-17.3-5.7-26.2 1.5-28.6-0.3-57.3-1.3-85.9-2.5-14.6-1.9-29.4-2-44.2-0.2-6.2 1.7-13.1 5.9-17.7zm498 2.7c3.8-3 8.8-1.8 13.2-2 59.4 0.1 118.7-0.3 178.1 1.1 77 1 154-0.4 231 0.5q1.9 2.4 4.1 4.7c0.5 13-0.7 26 1.5 38.8 0.7 37.4 0.2 74.8 0.5 112.1-0.1 9.4-1.3 21.5-11.2 25.7-8.3 3.8-17.8 4-26.3 7.4-26.5 1.2-53.1-0.6-79.6 0.7-7.6-0.3-16 1.5-22.7-3.1-23.8 0.1-47.5-0.2-71.3-1.3-36 1.3-72.1 0.7-108.1 1.8-9.8 2.5-19.9 1.7-29.9 2-16 0.1-32 1-48 0.4-8.3-0.2-15.7-5.1-24-5.1-5.4 0-10.8-0.1-16.2-0.4-0.6-13.5-3.1-26.7-5.2-40-2.4-24.7-0.4-49.5-2.9-74.2 2.5-18.4 1.8-37.1 3-55.7 2.3-6.3 8.8-9.8 14-13.4zm435.7 16.9c-1-9.1 8.1-15.5 15.8-17.6 109.7 0.7 219.5-0.1 329.2 1 12.6 2.4 25.5 1.6 38.3 2.6 0.7 23.4-0.7 46.8 0.1 70.2-0.2 24.7 6.7 49.4 2 74.1-2 10.5-1 21.2-1.1 31.9-3.7 6.4-9.4 11.4-14.6 16.6 5 1.9 10.2 4.4 15.8 4.3 49.3 0.5 98.7-0.3 148.1 1.2 20 0.8 39.9 0.5 59.9-0.8 1.4-2.6 2.8-5.3 4-8.1-9.2-1.7-18.6-0.8-27.9-1-48.7 0.9-97.4-0.3-146.1 0.1-9.5 0.4-19-2.4-26.4-8.4-2.5-19.3 0.1-38.9-0.1-58.2-0.6-37.3-5.9-74.4-4.3-111.7 0.2-3.3 1.9-6.4 4-8.8 15.6-6 32.6-3.4 48.9-4.3 22.8 0.4 45.9-1.5 68.5 2.4 10.5 0.6 21.1 0.9 31.6-0.1 7.4-0.9 14.5 1.8 21.8 1.8 10.1 0.4 20-2.5 30.1-1.7v753.1c-10.7 0-21.4 0.2-32.1 0.5-8.7 0.1-17.1 3.3-25.8 2.7-36.1-1.4-72.1 0.6-108.2-0.7-6.9-0.3-13.7-3.3-20.6-1.2-10.1 2.6-20.4 1.1-30.6 1.2-14.9 1.1-29.9-0.4-44.8 1.4-14.6 1.6-29.3-0.7-43.9-0.6-13.4-0.4-26.8 0.1-39.9-2.3-11-0.9-22.6 1-32.7-4.4-0.5-6.5-2.5-12.9-1.1-19.4 2.9-20.5 4.1-41.1 3.6-61.7-0.3-12-3.5-23.8-3-35.9-0.8-20.5 2.4-40.8 4.2-61.1 8.8-1.4 17.7-1 26.6-2.1 17.2-3.6 34.9-1.4 52.3-2 31.4 0.2 62.7-0.5 94.1-0.3 14.1-0.5 27.7 4 41.9 3.1 52.3-1.4 104.7 0.9 157-0.4-0.2-2.9 1.1-6.3-0.7-8.9-20-2.5-40.2 1.1-60.3 0.3-35.1-0.3-70.2-2.9-105.3-2.3-11.4 0.7-23.3-4.7-29.2-14.7-3-15.1 1.9-30.3 2.2-45.5 0.4-14.7 1-29.4 0.8-44.1-1-18.5-1.8-37.2-0.1-55.7 2.3-6.8 8.8-11.5 14.7-15.3 7.8-5.6 17.9-3.2 26.9-3.4 16.6 1.6 33.3 0.1 49.9 1.7 11.8 2.7 24 2.2 36.1 2.3 22.5-0.2 45 2.2 67.5 0.5-0.2-4.3 0.6-10.8-5.7-9.8-40 0.2-79.9-0.4-119.8-1.3-50.7-2-101.4-0.7-152-1.8-23.3-0.9-46.6-0.3-69.9 0.5-5.5 0.3-10.5-2.7-16-2.8-5.6-0.2-11.2-0.5-16.6-2-4.9-17.3-6.2-35.6-2.4-53.2 1.2-22.1 8.6-44 4.4-66.1-0.8-17.5-0.9-35.5 3.9-52.6 24.2-0.6 48.3-3.1 72.6-1.6 10.6 0.8 21.3-1.2 31.9 0.3 11 1.4 22.2 1.4 33.3 0.7-3.1-2.3-5.7-6.1-9.9-6-9.8-0.6-19.6-0.4-29.4 0.4-10 0.8-19.9-2.1-29.9-1.7-37.4-1.4-74.7 2.2-112 0.7-35.3 0.7-70.7 1.2-106-0.2-17.5 0.5-34.8-2.6-52.2-1.3-4.9 0.6-8.8-2.9-11.5-6.4-5.8-8.1-10.2-17.6-9.9-27.7-0.7-22.7-0.5-45.5 0.3-68.2-0.9-23.4-0.8-46.8-0.3-70.2zm-1882.4 171.2c5.3-0.2 10.5-2.2 15.9-1.9 42.1-0.1 84.2-0.2 126.3 0 8.1 2.1 17.8 2.7 23.6 9.6 1.8 7.6 2 15.5 2.8 23.2 0 25.3 0.4 50.6 0 75.8-4.1 16.6-1.5 33.9-5.2 50.6-0.5 10-3 20.1-8.4 28.7-46.1 2-92.3-0.7-138.4 0.2 0 2 0 6 0 8 59.1-0.1 118.3-1.3 177.4-1.1 75.3 1.1 150.6-1.2 226 0.3 4.4 0 8.7 1.2 13 2.5 0.4 39.7-0.3 79.5 0.3 119.2 1.7 13 3.4 26.3 2 39.5-1.8 5.2-3.9 13.3-11 12.1-32.1 0-64.2 0.4-96.3 0.4-31.3-0.1-62.7 0-93.9 2.4-18.9-0.2-38.3 2.3-56.8-2.5-2.6-0.8-5.3 0.2-7.8 0.5-15.7 2.6-31.7 1.9-47.5 2.1-12.7-0.2-25.4 0.2-38-0.9-32.7-1.4-65.3-0.4-98-1-20-0.4-40-0.2-60.1-0.1-1.5-6-4-11.7-5.2-17.7-2.3-18.3 0-36.6-0.9-54.9-0.8-22.7 0.2-45.4 0.3-68.1 0-8.8 3.4-17.1 6.8-25 4.9-3.3 9.8-6.7 15.1-9.1 17.6-0.3 35.1 0.8 52.6 1.2 2-2.4 3.8-4.9 5.7-7.4-17.5-0.5-35 0.3-52.4-0.9-10.5-2.7-21.4-1.8-32.1-3.2-19.3 1.8-38.5-0.5-57.8 0.1-42.7-1.6-85.5-1.3-128.1-2.8-11.4-4.1-23.5-0.9-35-4.2-6.7-1.6-15.4-0.5-19.3-7.4-3.7-14.2-2.3-28.8-2.8-43.2 0.1-33.4-1.3-66.8 1.1-100.1 0.1-7.1 3.5-13.4 6.7-19.4 1.5-3.6 5.7-5.1 9.3-5 54.7 0.1 109.4 0.7 164.1-0.3 48.7-1.1 97.3 1.2 146-0.2zm188.4-2.7c46.6 0 93.2 0.9 139.7 1 15.1 2.8 30.6 1.8 45.9 2.4 24 0.8 48 1.1 72 1.9 10 0.5 20-0.8 30 0.5 30 0.5 60 0.3 90 0 14-1.4 28 1 42-0.5 10.9 0 22.5-1 32.4 4.2 8.6 2.1 18.8 1.5 24.4 9.7 8.7 16.7 5.9 36.3 6.1 54.5 0.2 25.3-2.6 50.8 1.4 75.9 1.1 12.4 0.3 26.8-8.6 36.3-42.6 0.8-85.2 0-127.7 0.1-29.3-1.1-58.7-0.9-88 0-26 0-52 0.1-78 0.2-14.7 0.6-29.3-2.1-44-1.1-40.7-0.4-81.4-1.5-122.1-0.5-7.3 0.3-14.6 1.6-21.8 0.1-2.7-8.1-7.4-16-7-24.9 0.2-14.7 0-29.5 0.3-44.2 3.8-32.4-1.2-65.1 3-97.5 3.3-6.1 7.2-11.8 10-18.1zm627.6 6c58.6-2.7 117.3-2.1 176-2.2 45.4 0.3 90.8-0.1 136.1 0.4 13-0.2 25.2 4.9 38 5.6 5.2-0.5 6.6 5.1 9.2 8.3 1.5 2.5 4.4 4.5 4.2 7.7 0.6 20 1.2 39.9 1.6 59.9-0.1 8.7 2.1 17.3 1.7 26-0.2 23.7 2.6 47.8-4.1 70.9-3.5 1.1-6.9 2.5-10.6 2.3-36.7-0.1-73.4-0.1-110.1 1.2-78.7 0.4-157.4 1-236-0.8-40-0.8-80.1-0.3-120.1 0.2-4-0.2-8.3 0.4-11.9-1.5-1.9-9.7-8.3-18.1-8.2-28.2-1.8-28-0.9-56.1-0.8-84.1 0.1-14 0-28 1-41.9 0.2-5.4 6-7.9 8-12.6 2.9-5.6 8.4-9.1 14.3-10.8 37.2-2.3 74.5 0.4 111.7-0.4zm404.4 0.6c15.7-3.4 31.7-1.5 47.5-0.7 19.2 0.5 38.4 0.3 57.6 0.9 27.2 5.1 55.3-0.2 82.5 5.5 53.3 1.5 106.6-1.7 160-1.9 31.6 0 63.3-2.5 94.9-0.3 0.3 8.5-0.2 17-1.7 25.4-2.3 33.4-2.1 66.9-1.3 100.3 0.4 12.9-5 25.2-11.3 36.2-9.1 5-20.2 5.6-30.1 9.2-10.7 4.5-22.7 4.3-34.1 5.7-4.1 0.9-8.1 2.2-12.3 2-31.4 0.5-62.8 0.1-94.1 0.9-16 0.5-32-1.7-48-1.1-14.8 0.5-29.6-0.4-44.4 0.4 2.3 2.6 4.6 5.4 7.3 7.7 10.3 1.2 20.7-0.2 31 0.3 3.2 3.2 5.4 7.9 5.2 12.5 0.1 22.7-0.2 45.5 0.2 68.2 3.8 13.7 2.4 27.9 2.9 41.9 0.1 10 0.5 20-0.5 30-1.1 4.8-4.3 8.9-6.6 13.3-9.2 7.8-22 8.4-33 12-38-1.1-76.1 1.9-114.1 0.6-25.9-0.3-51.8 1.7-77.7 0.3-13.4 0.7-26.8 0.6-40.2-0.4-35.1-0.3-70.3 0.9-105.3-0.8-12.8-2.8-26-2.6-38.8-0.2-15.9 0.3-31.8 0.8-47.6 0.4-5.9-2.6-11.4-6.7-15.1-12.1-2-6.6-0.2-13.7 0.9-20.3 3.3-31.5 5.8-63.3 3-94.9-1-14.8-2-30.1 1.6-44.6 6.6-3.6 13.6-7.1 21.3-7.1 26.6-0.4 53.3 0.5 79.9-1.3 39.4-0.2 78.7 1.2 117.9 3.5 36.7 0.1 73.4 0.2 110.1-0.1 19-1.5 38.1-1.2 57.2-1.2q1.3-5.1 2.5-10.3c-37.9 0.2-75.8 0.5-113.7 0.2-11.8-0.5-23.7 0.8-35.4-1-3.6-3.9-7.3-8.3-6.9-13.9-1.1-30.7-0.3-61.5-1-92.2-2.1-12.5-2-25.3-1.6-38 0-5.4 2.9-10.4 6.8-13.9 7.8-7.4 14.9-16 24.5-21.1zm144.6 179.7c2.7 3.5 5.3 7.3 8.8 10.2 3.6 0.8 7.3 0.5 11 0.5-4.7-6.5-11.1-12.5-19.8-10.7zm-14.9 10.6c5.5 0.6 8.8-3.6 10.9-8.1-6-1.8-11.2 1.7-10.9 8.1zm323.3-186c12-2.7 24.4-1.4 36.6-1.2 19.3 0.5 38.6 1.9 58 1.7 31.3-0.6 62.6 2.1 94 0.4 16.6-1.3 33.3 0.5 50 0.3 12.8 0.6 25.9-1.1 38.4 2.5 22.5 0.7 45.1-0.6 67.6 0.4 10.8-0.1 22 1.6 32.5-2.1 9.5-1.2 19.2-0.1 28.7-0.3 4.3 5.4 4.5 12.5 5.6 19 1.5 13.8 1.3 27.9 3.6 41.6 1 13.5 0.5 27 0.8 40.5-0.2 11 0.7 22.1-1.8 32.9-1.8 8.8-0.9 17.9-2.5 26.7-2.9 6.8-7.9 14-14.9 16.8-47.3 1.4-94.7 0.2-142 0.6-60.6-0.7-121.2-1.7-181.7-1.5-5.5 0.1-10.9-1.1-16.2-2.2-19.1-0.8-38.4 0.3-57.5-1.2-2.3-2.8-4.4-5.7-6.2-8.8-2.6-5.6-0.5-11.8 0.9-17.3 3.1-8.3 0.6-17.2 2.2-25.7 2.4-11.3 2.2-22.9 2.6-34.3 1.8-29.6 0.4-59.2 1.3-88.8zm-2191.4 174.1c4.8 2.9 10.1 5.1 15.9 4.8 99.3 1.8 198.7-0.6 298.1 0.3 29.4 0 58.7 2.4 88.1 2.5 9.7 0.9 19.4 2.8 29.1 3.7-0.1 6.5-0.2 13-1.2 19.5-1.6 9.7-0.6 19.7-1.7 29.5-2.5 16-1.9 32.3-1 48.4 2.1 15.3 3.3 31-0.4 46.1-0.9 10.7-3.4 21.7-10.4 30.1-11.5 1.3-23-0.4-34.5-0.1-53.2 1.2-106.5-0.1-159.7-1.2-21.9-3.1-44.3-3-66.3-0.2-50.6 0.7-101.2 0.3-151.7 1.2 0.2 1.7 0.6 5 0.8 6.6 24.9 0.1 50-1 74.9 2.1 14.2-0.2 28.2 3.2 42.5 2.7 20.1 1 40.4-0.8 60.5 0.8 1 21.9-1.4 43.7 0.2 65.6 4.6 33.6 3.5 67.6 2 101.5-11.3 3.6-23.1 6.1-35.1 6-12.1 0-23.9 2.6-36 2.4-37-0.1-74.1-1.3-111.1-0.6-0.1 1.2-0.3 3.6-0.3 4.8 10.2 4.5 21.3 2.9 32.1 3.7 19 2.5 38.4 2.8 57.4-0.1 32.9-0.7 66-0.4 98.9-0.8 32.9-3.6 65.9-2.4 98.9-2.7 28.8 0.4 57.7-0.7 86.4 2.7 13.3-0.2 26.3 3.1 39.6 3.5 6.3-0.2 11.5 4 15.1 9 5 13 3.8 27.2 3.8 40.9-0.2 10 0.1 20.1-0.4 30.1-2.7 21.9-1 44-1.4 66-0.5 9.3 2.2 18.5 1.6 27.9-1.1 5.8-6.2 12.2-12.8 11.3-68.6-1.3-137.3-0.2-205.9 0.1-14.1 0.7-27.9-2.9-42-2.3-56.9 0.2-113.9-0.2-170.8 0.2-0.1 2.6-0.1 5.2-0.1 7.8 20.2 2.2 40.6 0.5 60.9 1 57.3 0.2 114.6-0.1 171.9 0.4 36.1 0.5 72.2-0.2 108.2 0.7 27.9 3.3 56 1.4 83.9 2.2 19.7 0.9 39.4 0.4 59.1 0.6h-487.1zm1182 11.4c22.5-3.3 45.5 1 67.9-3.6 25.4-0.1 50.7-2.8 76.1-0.8 22.6 0.3 45.3 0.4 68 0.8 22.8 3.7 46.2 2.5 69.1 6 1.1 13.6 0.7 27.3 1 40.9 0.6 35.4 1.9 70.7 0.1 106.1 0.2 7.2-3.8 13.3-7 19.5-19.9 10.7-43 5.4-64.4 9.2-33.6 0-67.2 2-100.8 2.9-31.3 2.8-62.6-1.2-93.9-2-26 0.3-52-0.9-78-0.7-9.7-3.1-20-2.2-30.1-2.6-15.3-0.6-30.8-2.2-46 0.5-6.3 1-12.4-0.5-18.5-1.6-9.9-0.5-19.8 0-29.6-1.7-4.2-0.9-8.2 0.9-12.2 1.7-7.6-6.8-20.9-9.7-22.3-21.5-2.7-31.1-2.6-62.5-2.7-93.7 2.1-14.9-1.5-30.5 3.8-44.9 0.5-5.6 0.6-14.2 7.9-15 11.9-1 23.8 0.8 35.6-0.3 11.4-1.3 22.7 0.5 34 0.4 33.4 0.7 66.8 2.2 100.2 0.2 13.9-1 27.8 1.7 41.8 0.2zm775.1 13.7c-0.1-7.6 7.4-11.1 13.4-13.2 82.5-1.2 165-0.1 247.5-1.6 31.3 0 62.7 0.9 94 0.9 15.6 0.4 31.4-0.1 47 1.1 7.8 3.2 16 4.4 24.5 5 7.7 0.5 14.8 7.3 13.7 15.3 0.1 30-0.6 59.9-0.1 89.9 2.1 18.6 3.2 37.5 2.2 56.2-3.5 7.7-11.1 12.9-16.5 19.2-20.9-0.8-42.1-3.3-62.9-0.3-6.7-0.6-12.9-4.5-19.8-3.7-31.4 0.1-62.7-3.6-94-0.7-10.8 0.4-21.4-2.1-32.1-1.5-33.8 4.5-68-0.4-101.9-0.4-28.8 0.1-57.5-0.7-86.3-0.9-6 0.4-11.5-2.4-16.9-4.8-8.8-9.6-6.5-23.1-7.5-35-0.4-12.4-3-24.6-2.5-37.1-2.7-29.3-3.8-59-1.8-88.4zm691.7-13.5c32.4-1.1 64.8 0.3 97.2 0.2 11.5-1.6 22 3.5 32.6 6.8 5.1 3.5 12.2 6.7 12 14 1.2 24.7-0.4 49.4-0.6 74.1-1.7 20-0.7 40.1-0.9 60.2 0.5 6.1-3.5 11.3-6.8 16.1-4.9 3.2-10.6 5.7-16.3 6.9-20.7-0.6-41.3 1.2-62 0.9-19.4-1.3-38.8 0.7-58 2.4-7.7 0.5-15.3-2.3-22.9-0.9-12.6 1.8-25.5 0.1-37.8 3.3-51.7 0.7-103.4 2.5-155 1.6-6.8-0.2-14.6-0.8-19.2-6.3 0.1-12.2-2.8-24.1-2.3-36.2 0.1-20-0.6-40 0.5-59.9 3.5-21.9-0.4-44.2 2.3-66.1 0.1-4.8 3.4-8.5 7-11.3 24.4-1.2 48.9 0.2 73.4-0.5 10.7-0.6 21.7 0.6 32-2.9 23.3-0.5 46.7-1.2 70-0.6 18.3-0.1 36.7 1 54.8-1.8zm-2444.2 185.7c4.7-3 9.4-7 15.3-7 45.3 0.2 90.7 1.9 136.1 1.5 60 0 120-0.2 180 0.2 12.7 0.2 25.4-0.3 38 1.1 16.6 0.4 33.3-0.3 49.9 0.8 16.4 3.9 33.2 1.5 49.8 2.7 6.1 4.5 10.6 12.1 10.3 19.9-0.2 10.2 3.2 20 3.1 30.2 0.2 22.6 0.2 45.3 0.3 68-0.3 16.6 0.3 33.4-4 49.5-2 4.1-4.9 7.6-7.1 11.4-32.1 1.4-64.3 0.5-96.3 2.7-14.7 2.1-29.5 0.5-44.3 1.8-8.3 1.7-16.9 2-25.4 1.9-16.5-3.5-33.7-2.3-50.5-2.9-8-0.7-15.7-3.5-23.8-3.3-11.8 0.3-23.8 1.3-35.6-0.7-10.2-2.6-20.8-1-31.1-2.7-44.2-3.4-88.6-0.9-132.8-2.8-12-5.7-26.2 1.2-37.8-5.5-7.4-18.5-0.8-38.9-5.5-58 0.6-28.4-1.3-56.9-0.1-85.3 0.8-8.8 3.3-18.8 11.5-23.5zm671.4-0.7c9.5 0.3 18.4-3.3 27.8-3.2 18-0.2 35.9-0.1 53.8 0.1 4.8-0.2 9.2 1.5 13.9 2.3 2.9-1.2 5.6-3 8.4-4.4 10.9 4.3 22.8 1.5 34.2 2.6 5.7 0.9 11.7 2.9 17.5 1.1 9-3.4 18.8-1.8 28.1-1 11.7 4.1 24.2 1.3 36.3 1.8 19.3 1.2 38.7 1.2 58 2.2 8.6 0.3 16.6 3.5 24.6 6.1 4.3 2.7 8.8 6.1 10.1 11.2 3.3 8.3 1.3 17.4 4.2 25.8 2.3 38.5 1.9 77.1 1.8 115.6 0.4 4.7-1.8 8.9-4.2 12.9-12.3 1.6-23.8 7.4-36.4 6.7-28 0-56.1 0-84.1 0.7-38.7-1-77.4 0.1-116-1.5-34.6 2.1-69.3 0.4-104 0.6-18.7-0.9-37.4 3.6-56 0.4-16.1-3-32.7 1.9-48.4-3-12.5-1.3-25 0.6-37.4-0.2-6.5-2.2-9.1-9.2-11.2-15.1-1.1-17.9-1-35.8-0.3-53.6-0.4-32.7-0.8-65.3-0.5-98-0.4-4.3 3.5-7 6.4-9.4 12.4-1.6 25 0.3 37.5-1.2 31.3-2.9 62.7 2.9 94-0.6 14-1.6 27.9 2.4 41.9 1.1zm495.5 2.7c38.7-4.2 77.7-3.1 116.5-0.9 21.2-3.4 42.7-0.1 64-0.8 11.4-0.7 22.7 3.2 34 0.7 15.8-2.6 31.8-0.9 47.7 0 14.6 2.5 29.7 0.1 44.3 3.1 8.8 0.6 17.6 0.3 26.4 0.9 2.9 34 0.3 68.2 1 102.3 2.6 15.9 1.7 32.1 1.9 48.2 0.7 10.4-8.4 17.9-15.7 23.9-12.6 2.1-25.7 1.9-38.1 5.2-13.8 1.4-27.8 0.1-41.6 1.5-22.6 0.4-45.2-1.8-67.9-1.8-22 1.1-44.1 1.4-66.1 0-13.3-0.6-26.7 1.7-39.8-1.6-28.5-0.6-57.1 0.4-85.6-0.7-23.5-1.3-47-2.4-70.5-1.9-12.1 0-24.5 0.9-36-3.3-10.3-3.3-21.2-3.1-31.9-3.7-3.4 0.3-5.2-2.7-7-5-2.9-8.6-1.4-17.8-1.6-26.7-0.3-17.3-1.3-34.7 0.6-51.9 2.6-25.7-5.5-53.1 6.7-77.2 6.2-6.3 15.3-11.2 24.4-9.8 15.3 3.1 31.3 2.4 46.8 0.1 29.1-0.8 58.3-0.2 87.5-0.6zm348.4-0.4c3.2-1 6.6-0.8 9.9-0.9 25.4 0.2 50.8-1.3 76.2-0.8 33.3 0.4 66.6-2 100-0.8 26 0.5 52.1 0.2 78.1 1.5 8.8 1.1 17.8 2.7 26.7 0.8 23-2.1 46.1 1 69.2 0.5 11.9 0.2 23.9 0.1 35.8 0.7 22.5 4.4 45.7 1.2 68.6 2.8-0.2 24 1 48 0.6 72 0.5 14.6-1.4 29.6 2.8 43.9 2.5 7.8 1.2 16.1 1.3 24.2-0.2 6.7 0.5 13.5-0.3 20.2-4.7 9.5-12 18.7-23.2 20.3-12.5 0.5-25.2 0.9-37.5-1-12.8-1.1-25.4 1.9-38.1 1.3-26.6-2.8-53.5 1.8-80.1-1.3-10.9-0.7-21.8 0-32.4-2.3-53.2-0.7-106.4 0.3-159.5-0.8-15.2-3-30.9-1-45.8-5.4-16.1-0.7-32.3 0.2-48.4-0.4-3.7-4.8-8.1-10.1-7.5-16.6-0.4-44-2.8-88-0.4-132 0.9-8.6-1.6-18.6 4-25.9zm499 4.4c36.3-2.7 72.7-0.8 109 0.2 14.6 2.7 29.5 1.5 44.2 1.7 6.1-0.1 11.6-4.9 17.7-2.8 4.7 1.1 9.5 1.1 14.2 1.1 50 1.7 100.1-0.2 150.1-0.8 6.7-0.3 12.9 4.3 19.8 2.6 11.8-2.6 24.1-2.2 36.2-1.4 3.4 42.8-1.6 86 1.2 128.9 2.5 11.8 1.8 24.6-3.7 35.3-6.6 7.4-14.5 17.2-25.5 15.8q-64.1-0.3-128.1 0c-25.9-1.9-52-2.1-78-0.6-53.3-2.1-106.7 0.4-160-1.1-5.7 0.2-10.4-3.8-15.1-6.6-8-10.5-6-24.6-5-36.9-0.4-6.7-0.5-13.3 0-20 0.6-6.6-5-11.7-5-18.1-0.3-6.4 4.8-11.5 5-17.8 1.5-24.1-3.8-48.5 1.2-72.3 7.5-1.7 14.3-5.6 21.8-7.2zm-1451 180.7c11.9 2.5 24.7 2.5 36.4-1.4 11.8-3.2 23.6 2.2 35.6 0.8 25.7-0.5 51.6-1 77.4 0.1 11.3 2.9 23.1 1.1 34.6 2.6 4.7 3.4 1.9 9.7 2.3 14.5-0.6 24-1.6 48-1.1 72.1 0.9 20.6 1.8 41.3 1.8 62 0.4 13.8-8.5 26.5-19.2 34.4-9 2-18.5 0.5-27.7 0.6-38.6-3-77.3 0.5-116 0.1-11.4 0.3-22.9-0.6-34.2 1.2-16.6 1.1-33.3-0.7-49.7 2.2-60 2.3-120.1 0.7-180.2 0.5-10.6 0.4-21-2.1-31.6-2.7-12.4-3.3-25.5-0.2-37.7-4.1-3.8-1.4-8.2-3.7-8.6-8.1-2.1-8.3-7.4-15.5-8.6-24.1-0.7-26.7-0.7-53.6 6-79.6 4.6-19.5 1.7-39.6 1.1-59.3 7.2-1.5 13.9-4.8 21.3-5.6 19.3-2.4 38.8-1.4 58.2-1.9 75.3-0.3 150.7-1.4 226-0.2 4.9-0.2 8.6-5.7 13.9-4.1zm330.2 1.6c19.7-3.9 39.9-2.3 59.9-2.3 22.8 0.4 45.7 0.2 68.5 1.1-5.6 0.6-11.2 0.7-16.8 1.5 23.8-1 47.7-0.7 71.5 0.1 11.5 2 23.2 1.5 34.8 1.8 46 0.5 92.1 0 138.2 1.4 5.8-0.2 11.5 1.7 15.4 6.1 1.4 7.7 0.7 15.6 0.8 23.4-0.5 38 0.1 76 1 114 0.3 5.9-0.6 11.7-0.7 17.6 0.5-0.6 1.6-1.9 2.1-2.5 0.1-11.8-0.7-23.5 0.3-35.3-0.2 12.7 0.5 25.3 0.1 38-4.3 8.4-8.4 19.8-19.1 21.4-16.8 0.2-33.6 0.8-50.1-2.5-66-2-132-0.4-198 0.7-11.4-0.6-22.6 1.1-33.9 1.3-62.7-0.2-125.3 1-188 0.2-10.7-1.8-15.7-13.6-18-23.1-0.5-19.2 1.2-38.6-1.4-57.7-2.6-12.6-1.4-25.4-1.6-38.1 0.4-10.7-0.6-21.5 1.6-32.1 1.1-7.4 0.6-15.1 2.4-22.5 7.8-8.4 19.8-11 30.8-12.3 33.4-0.5 66.8 0 100.2-0.2zm544 5.7c22.4-3.9 45.3-2.2 67.9-3 35.3 0 70.7-2.5 105.9 0.1 31.4 1.1 62.7 1.4 94.1 1.5 15.3-0.5 30.5 2.6 45.8 1.8 0.5 28.4-0.2 56.7-1.4 85 0.9 14.1 1.8 28.2 4.5 42 0.9 15.4-0.6 30.8-3.2 45.9-0.4 3.9-3.7 6.6-6.5 9-19.7 1.6-39.5 0.7-59.1 3.5-20.7 1.5-41.3-2.6-62-2.2-24.7 0.4-49.5-0.6-74.1 2.4-36 0.5-72-0.2-108 0.6-15.4 0.3-30.7-0.1-46-1.8-34.7-0.4-69.5-0.7-104.2-1.6-7 0.4-11.7-5.7-16-10.2-2.3-19 1.8-38.2 1.1-57.4 2.1-36.1-0.4-72.2 1.1-108.3-0.4-4.2 3.6-6.5 5.8-9.3 16.7 1.8 33.5 2.5 50.3 2.6 14.5 2.3 29.2 1.7 43.9 1.7 10-0.1 20.2 0.6 30.1-1.3 10-0.9 20-0.4 30-1zm427.8-0.2c6-2 11.9 1.2 17.9 0.1 15.2-3.7 30.9 0.3 46.2-2.3 15.9-3 32 0.5 48-0.2 23.3-0.5 46.7 1 70 1.2 29.3 0.2 58.7-0.1 88 0.1 17.2-0.1 34.7 0.8 51.3 5.7 7.7 3 11.9 10.9 11.8 18.9 0 11.7 0.2 23.5-0.7 35.3-1.4 7.4-1.7 15.1-0.6 22.7 1.8 10.1 0.6 20.4 2.9 30.5 1.3 17.9 1.2 35.9 1.2 53.8-0.2 3.1 0.2 7-3 8.8-8.7 6.6-20.5 5.8-30.9 6.1-29.3-0.2-58.7 2-87.8-2-19.5-1.3-39.2-1-58.1 4-25.3 2.3-50.7-0.8-76.1 0.7-26.7 1.3-53.2-3.6-80-2.7-33.4-0.9-66.8 0.6-100.1-0.5-2.3-26-1.1-52.1-2.2-78.2-0.3-8.2-3.7-16.1-2.9-24.4 4.2-19.4 2.1-39.6 3.8-59.4 1.2-4.9 2.7-10 5.6-14.3 7.2-3.8 15.5-3.2 23.4-3.3 24-1.2 48.2 0.7 72.3-0.6zm468.2 4.2c7.6 0.7 14.2-4.3 21.9-3.7 5.5-0.4 11 0.7 16.3 2.1 6 1.4 11.9-0.9 17.8-1.9 13.4-1.2 26.5 2.8 39.9 2.9 25.3 0.1 50.6 0.3 75.9 1.1 13.1 2.2 26.5 2 39.7 1.3 13.2-2.5 26.7-1.7 40-1.6 1.5 8.3 1.2 16.9 1.7 25.3 2.9 20.5 1.7 41.3 1.9 61.9-0.6 18 0.3 36-0.5 54-1.2 6.6-3.1 13.2-3.1 20.1 0.2 5.4-2.8 10.1-6.1 14.2-17.5 4.4-35.6 2.9-53.5 3.4-36 0-72 0.2-108 0-10-0.6-20-0.7-30 0.2-21.3-1.2-42.7 0.7-64 0-26-0.7-52 1-77.9 0.7-15.2 0.8-26.3-12-31.5-24.7-1.4-13.4-5.7-26.3-6.1-39.8-0.7-16-0.6-32.2-3-48.1 2.7-16.5 1.8-33.3 2.7-49.9 0.6-5.2 2.8-9.9 3.5-15.1 9.2-5.2 20.1-4.2 30.3-4.1 30.6 1.5 61.4 0.9 92.1 1.7zm264.2 11.4c1.2-5.5 5.1-12.6 11.6-11.6 38-0.5 76.1 1.2 114.1 0.8 23.3-1.8 46.7-0.8 70-0.6v183.4h-1.3c-13.7-2.4-27.7 0.3-41.4-2.3-19-3-38.4 0.3-57.1-4.3-27.4-2.2-54.9 1.1-82.2-0.5-10.3-9.1-13.6-23.6-13.2-36.8 0.8-12.8-1.2-25.4-0.5-38.1 0.2-30-1.3-60 0-90z"/>
		<path id="Path 2" fill-rule="evenodd" class="s1" d="m2383.9 0h1.1c2.1 5.1 9.4 3.5 12.3 0h7.2c15.1 2.2 30.4 0.4 45.5 2.3 10 1.2 20-1 30-1 5.4 0 10.8-0.3 16.1-1.3h20.3q1.5 4.1 3.1 8.2c3.6-2.3 7-4.9 10.9-6.8 9.8-1.2 19.7 0.9 29.6 1.2q32.1 0.4 64.1 0.4c4.2 0.1 8.2-1.5 12-3h22.7c25 2.6 50.1 3.8 75.2 2.2 11.1-1.5 22.5-0.6 33.6-2.2h32.6c11 3.3 22.5 2.9 33.9 3.4 21.1 3.1 42.6 1.7 63.9 2.2 13.5-0.5 27.2 0.8 40.6-1.1 15.7-4 31.6 1 47.3 1.4 4.3 0.1 8.3 1.8 12.1 3.6v1.9c-3.3 1.6-6.5 3.6-10.2 3.6-11.3 0.1-22.5 4-33.8 2.2-22.4-4.3-45.4-0.7-67.9-2.8-15.2-2.7-30.7-1.6-46.1-2.3-14.4 0.2-28.8-1-43.2-0.6-6.1 1.9-11.6 5.9-16 10.3-0.7 8.7 0.3 17.5 1.7 26.1 2.1 16.6 0 33.4 1.2 50 0.9 14-0.1 28-1 42-1.3 10.9-3.5 22.9 2.2 33 13.2 8.7 29.3 10.5 44.4 14 11.9 3.4 24.5 1.9 36.7 2 17.4-0.7 34.9 1.1 52.2-1.4 26.6-0.4 53.2-0.3 79.8-0.4v7.9q-38 0.3-76 0.1c-17.5-0.6-34.5 5-52 4.3-19.3-1-38.7-2.4-58-4-34 0-68-1.1-102-0.7-31.7 0.8-63.5 1-95.2 0.3-3.8 7.1-7.3 14.4-10.2 22-2.7 10.1-1.6 20.7-1.8 31 0.4 31.3-0.3 62.7-0.5 94 0.3 12.8-0.5 25.8 3 38.3 7.5 4.7 15.2 11.3 24.5 10.6 46.1-0.1 92.1-0.9 138.2-1 53.3-0.2 106.7 0.2 160-0.3 16.7 0 33.3-0.5 50-0.1 5.4-0.2 10 2.7 14.2 5.7-13.9 10.5-32.3 3.7-48.2 5.3-28.6-1-57.3-0.9-86-1.3-17.8 0.5-35.3-4.3-53.1-1.9-14 11.9-18.2 31.2-20.3 48.7-1 37.1-1.1 74.4 3.4 111.3 2 7.1 1.5 14.7 4.5 21.5 2.5 5.8 4.8 11.8 7.5 17.6 16.8 5.4 34.7 3 51.9 6.4 47.3 2 94.6-0.3 141.9 0.8q0 3.6 0.1 7.2c-19.4-1.2-38.6 2.4-57.9 1.8-52-1-104-3.4-156-2.8-20.6 0.1-41.3-0.3-61.9-0.8-27.9-4.1-56.2-1.9-84.3-2.2-9.3-1-17.2 6.5-20.4 14.6-3.1 28.8-1.7 57.8-3.9 86.7-0.3 7.6-2.2 15.5 0.6 22.8 3.8 10.6 2 21.9 3.2 32.8 2.1 8.9 2 20.5 11.6 25 6.3 0.9 12.7 0.2 19.1 0.3 9.9-0.3 20 1.5 29.7-1.4 10.8-1.8 21.8-1.4 32.6-0.2 10.4 2.5 21.1 1.8 31.7 2.4 10.7 0.6 21.3 1.6 32 2.5 57.1-0.4 114.2 1.1 171.3-0.6 18.9 0.4 38.9-4.1 56.7 4v5.6c-10.1-0.8-20 2.1-30.1 1.7-7.3 0-14.4-2.7-21.8-1.8-10.5 1-21.1 0.7-31.6 0.1-22.6-3.9-45.7-2-68.5-2.4-16.3 0.9-33.3-1.7-48.9 4.3-2.1 2.4-3.8 5.5-4 8.8-1.6 37.3 3.7 74.4 4.3 111.7 0.2 19.3-2.4 38.9 0.1 58.2 7.4 6 16.9 8.8 26.4 8.4 48.7-0.4 97.4 0.8 146.1-0.1 9.3 0.2 18.7-0.7 27.9 1-1.2 2.8-2.6 5.5-4 8.1-20 1.3-39.9 1.6-59.9 0.8-49.4-1.5-98.8-0.7-148.1-1.2-5.6 0.1-10.8-2.4-15.8-4.3 5.2-5.2 10.9-10.2 14.6-16.6 0.1-10.7-0.9-21.4 1.1-31.9 4.7-24.7-2.2-49.4-2-74.1-0.8-23.4 0.6-46.8-0.1-70.2-12.8-1-25.7-0.2-38.3-2.6-109.7-1.1-219.5-0.3-329.2-1-7.7 2.1-16.8 8.5-15.8 17.6-0.5 23.4-0.6 46.8 0.3 70.2-0.8 22.7-1 45.5-0.3 68.2-0.3 10.1 4.1 19.6 9.9 27.7 2.7 3.5 6.6 7 11.5 6.4 17.4-1.3 34.7 1.8 52.2 1.3 35.3 1.4 70.7 0.9 106 0.2 37.3 1.5 74.6-2.1 112-0.7 10-0.4 19.9 2.5 29.9 1.7 9.8-0.8 19.6-1 29.4-0.4 4.2-0.1 6.8 3.7 9.9 6-11.1 0.7-22.3 0.7-33.3-0.7-10.6-1.5-21.3 0.5-31.9-0.3-24.3-1.5-48.4 1-72.6 1.6-4.8 17.1-4.7 35.1-3.9 52.6 4.2 22.1-3.2 44-4.4 66.1-3.8 17.6-2.5 35.9 2.4 53.2 5.4 1.5 11 1.8 16.6 2 5.5 0.1 10.5 3.1 16 2.8 23.3-0.8 46.6-1.4 69.9-0.5 50.6 1.1 101.3-0.2 152 1.8 39.9 0.9 79.8 1.5 119.8 1.3 6.3-1 5.5 5.5 5.7 9.8-22.5 1.7-45-0.7-67.5-0.5-12.1-0.1-24.3 0.4-36.1-2.3-16.6-1.6-33.3-0.1-49.9-1.7-9 0.2-19.1-2.2-26.9 3.4-5.9 3.8-12.4 8.5-14.7 15.3-1.7 18.5-0.9 37.2 0.1 55.7 0.2 14.7-0.4 29.4-0.8 44.1-0.3 15.2-5.2 30.4-2.2 45.5 5.9 10 17.8 15.4 29.2 14.7 35.1-0.6 70.2 2 105.3 2.3 20.1 0.8 40.3-2.8 60.3-0.3 1.8 2.6 0.5 6 0.7 8.9-52.3 1.3-104.7-1-157 0.4-14.2 0.9-27.8-3.6-41.9-3.1-31.4-0.2-62.7 0.5-94.1 0.3-17.4 0.6-35.1-1.6-52.3 2-8.9 1.1-17.8 0.7-26.6 2.1-1.8 20.3-5 40.6-4.2 61.1-0.5 12.1 2.7 23.9 3 35.9 0.5 20.6-0.7 41.2-3.6 61.7-1.4 6.5 0.6 12.9 1.1 19.4 10.1 5.4 21.7 3.5 32.7 4.4 13.1 2.4 26.5 1.9 39.9 2.3 14.6-0.1 29.3 2.2 43.9 0.6 14.9-1.8 29.9-0.3 44.8-1.4 10.2-0.1 20.5 1.4 30.6-1.2 6.9-2.1 13.7 0.9 20.6 1.2 36.1 1.3 72.1-0.7 108.2 0.7 8.7 0.6 17.1-2.6 25.8-2.7 10.7-0.3 21.4-0.5 32.1-0.5v10.2c-23.3-0.2-46.7-1.2-70 0.6-38 0.4-76.1-1.3-114.1-0.8-6.5-1-10.4 6.1-11.6 11.6-1.3 30 0.2 60 0 90-0.7 12.7 1.3 25.3 0.5 38.1-0.4 13.2 2.9 27.7 13.2 36.8 27.3 1.6 54.8-1.7 82.2 0.5 18.7 4.6 38.1 1.3 57.1 4.3 13.7 2.6 27.7-0.1 41.4 2.3h-2509.6c-19.7-0.2-39.4 0.3-59.1-0.6-27.9-0.8-56 1.1-83.9-2.2-36-0.9-72.1-0.2-108.2-0.7-57.3-0.5-114.6-0.2-171.9-0.4-20.3-0.5-40.7 1.2-60.9-1 0-2.6 0-5.2 0.1-7.8 56.9-0.4 113.9 0 170.8-0.2 14.1-0.6 27.9 3 42 2.3 68.6-0.3 137.3-1.4 205.9-0.1 6.6 0.9 11.7-5.5 12.8-11.3 0.6-9.4-2.1-18.6-1.6-27.9 0.4-22-1.3-44.1 1.4-66 0.5-10 0.2-20.1 0.4-30.1 0-13.7 1.2-27.9-3.8-40.9-3.6-5-8.8-9.2-15.1-9-13.3-0.4-26.3-3.7-39.6-3.5-28.7-3.4-57.6-2.3-86.4-2.7-33 0.3-66-0.9-98.9 2.7-32.9 0.4-66 0.1-98.9 0.8-19 2.9-38.4 2.6-57.4 0.1-10.8-0.8-21.9 0.8-32.1-3.7 0-1.2 0.2-3.6 0.3-4.8 37-0.7 74.1 0.5 111.1 0.6 12.1 0.2 23.9-2.4 36-2.4 12 0.1 23.8-2.4 35.1-6 1.5-33.9 2.6-67.9-2-101.5-1.6-21.9 0.8-43.7-0.2-65.6-20.1-1.6-40.4 0.2-60.5-0.8-14.3 0.5-28.3-2.9-42.5-2.7-24.9-3.1-50-2-74.9-2.1-0.2-1.6-0.6-4.9-0.8-6.6 50.5-0.9 101.1-0.5 151.7-1.2 22-2.8 44.4-2.9 66.3 0.2 53.2 1.1 106.5 2.4 159.7 1.2 11.5-0.3 23 1.4 34.5 0.1 7-8.4 9.5-19.4 10.4-30.1 3.7-15.1 2.5-30.8 0.4-46.1-0.9-16.1-1.5-32.4 1-48.4 1.1-9.8 0.1-19.8 1.7-29.5 1-6.5 1.1-13 1.2-19.5-9.7-0.9-19.4-2.8-29.1-3.7-29.4-0.1-58.7-2.5-88.1-2.5-99.4-0.9-198.8 1.5-298.1-0.3-5.8 0.3-11.1-1.9-15.9-4.8v-5.8c19.4-1.7 38.7 1.3 58 1.8 24.7 0.2 49.3 0.2 74-0.9 13.8-0.3 27.7 1.5 41.4-0.7 7.7-4.9 7.9-15.6 9.5-23.7 0.5-43.4-0.9-86.8 0.4-130.1 0.5-5.4-2.1-10.2-4.5-14.8-3.8-6.2-11.7-6.4-17.9-8.3-11.5-3.5-23.7-0.3-35.3-3.2-13.5-2.8-26.9 4.1-40.2 0.2-7.9-3.1-14.8 6.3-22.5 2.3-19.5-5.7-40-1.3-59.8-4-0.1-1.6-0.4-4.7-0.5-6.3 19.8-0.4 39.7-0.8 59.4-0.3 9.3 1.8 18.7 1 28 0.7 14 1.5 28 1.8 42 0.7 18.3 0.1 36.6 2.1 54.8-0.2 10.8-0.5 21.6 1.4 32 4 9.2 1.5 18.7 0.6 27.7-1.3 55.1-1.2 110.3 0.3 165.4-1.2 6.8-0.9 9.7-8.3 12.8-13.5 6.2-17.5 4.1-36.4 4.6-54.7 0.4-12.7-0.8-25.5 1.1-38.1 2.1-15.9 0.1-32 0.6-48-0.6-6 1.2-13-2.9-18.1-11.1-13.9-31.5-15.6-47.6-11.2-7.7 2.5-15-1.8-22.4-3.2-24.8-1.1-49.8 2.1-74.3-2.1-9.3-1.1-18.5 1.5-27.8 1.1-20.6-0.4-41.3 0.2-61.9 0.3-26.7-1.8-53.5-1.5-80.2-1.6-7.3 0.2-14.3-1.7-21.4-2.1-29.9-1-59.9-0.7-89.6-3.6 0.2-1.1 0.5-3.4 0.6-4.5 32.9-0.2 65.7 1.8 98.5 1.8 12.3-0.1 24.8 0.8 37-1.1 9.9-1.6 20.2 1.4 29.7-2.7 5.6-3 6.6-9.5 7.8-15.1 0.8-6 2.1-11.8 2.7-17.8 1.7-32.7 0.9-65.6 3.5-98.3-0.1-15.3 0.3-30.5 0.3-45.8 0.7-5.1-4.3-8.7-9.1-7.4-41.2 2.3-82.6 2.6-123.8 0.7-13.3-1.3-26.7 0.2-39.9-2-1.6-2.3 0.2-4.8 0.9-7.1 10.3 2.1 20.7 0.6 31 1.8 14.6 1.8 29.2-0.7 43.9-0.3 30.7-0.2 61.4 0.7 92-0.9 13.3 0.4 26.7 0.8 40 0.9 45.3 2.6 90.7 2.4 136 3.6 13.5 2.5 27.4 1.5 41.1 2.9 5.7 0.2 11.6 1.7 17.2-0.1 3.6-3.1 7-6.9 8.3-11.7 3.3-10.4 5.2-21.4 4.8-32.3-0.4-23.3-0.1-46.7-0.8-70-2.7-19.9-0.5-40-1.9-60-0.7-5.2-2.6-10.1-4-15.2-112.9-1.5-225.8-0.2-338.7-1.2-12-0.3-24.1-0.9-35.8-3.8-8.3-2.2-17-1.7-25.5-1.7-1.2-1.7-3.5-5.1-4.6-6.8 24.2-2.7 47.8 5.8 71.9 5.7 26.9 0.5 53.7 1 80.6 0.2 2.3-8.5 7.2-16.2 7.7-25.2 0.7-13.4 3.2-26.7 2.5-40.1-0.8-11 2-21.7 5.1-32 2.6 2.7 4.3 6.2 3.8 10.1 0.4 20.8-1.7 41.8 2.9 62.2 1.1 9.2 4.1 18.2 10 25.5 73.8-1.1 147.6 0.7 221.5 0.1 9.2-0.5 18.5-1.3 27.8-0.6 19.4 1.4 38.8-0.7 58.1-0.3 8.1 0.2 16-0.8 24-1.4 37.3-0.8 74.7-0.2 112-0.6 10.9-2.3 21.9-2.6 32.9-3.4 6.6-20.5 3.6-42.4 2.3-63.5-3.3-15.2-2.7-30.8-1.7-46.2 2.5-16.5 1.9-33.3 3.5-49.9 0.7-8.1 1.7-16.8-2-24.4-4.5-5.6-12-7.5-18.8-7.4-49.4-0.3-98.8-0.3-148.2-0.1-22.7 0.5-45.6-1.1-68 2.8-33.3 2.2-66.6-1.2-100 0.2-32.6 1.3-65.3-0.4-98-0.2-13 0.2-26.9-2-38.9 4.3-9.1 9.3-20 20.6-18.9 34.7 0.6 17.1-0.2 34.1 0.1 51.2-2 0.1-6.1 0.4-8.2 0.5 0.3-13.8 0.9-27.7 0.6-41.5-0.4-13.2 0.9-26.6-2-39.6-0.3-2.2-2.1-3.7-3.8-4.9-35.1-5.3-70.8-1.5-106.1-4-17.8-0.3-35.6-0.2-53.5-0.6-0.9-3-1.6-6-2.2-9 38.3 1.8 76.6-0.5 114.9 0.3 17.3-0.4 34.7 1.4 51.9-0.1 78 0.1 155.9-0.6 233.9-1.3 6.1 1 8.2-5.8 8-10.7 0.1-10.8 3.4-21.2 2.9-32.1-0.4-41.4 0.8-82.8-0.2-124.1-24.2-2.4-48.4 1.3-72.6-0.2-23.9-1.4-48 0.4-72 0-16.1-1.4-32.4-0.5-48.5-2.3-36.4-0.2-72.9-1.4-109.3-0.1-19.2 2.5-38.7 1.7-58.1 2-11.6 0-23.3 0.7-34.7-1.4-7.1-1.3-14.4-0.9-21.5-0.8q0.4-4.3 0.8-8.5c11.3-0.6 22.1 3.3 33.4 2.8 26.7-0.2 53.4 0.3 80.1-0.6 26.5-3.1 53.3-2.2 79.8 0 80.8 1.1 161.5 0.2 242.2 0.2 8.7 1.2 17.4 3.3 26.3 2 20.2-3.1 40.7-1.7 61-2.3 23.4-2.6 47.1-1.8 70.6-2.7 53.5-0.2 107.2-1.3 160.6 2.8 32.4 0.1 65 1.5 97.3-1.6 22.1-1.1 44.2-0.8 66.2-2.5 18.5-4.4 37.7 0.9 56.2-3.7 9.8-2.1 19.9-1.7 29.8-2.4 20.9-3 42.1-1.6 63.1-1.3 14.8 2.2 29.9 2.2 44.9 2.9 19.6 1.6 39.2 0.7 58.8-0.7 0.1 1.8 0.3 5.4 0.5 7.1-25.7 3.6-51.6 2.4-77.4 2.9-19.3 1.9-38.7 1-58 1.3-25.3 0.3-50.7-0.1-76 0.7-5.2-0.5-7.9 4.1-10.5 7.7-2.7 4.2-4.9 8.6-6.5 13.3-3.9 19.2 4.8 38.1 1.8 57.3-6.2 29.5-4.2 59.8-2.6 89.6 2.6 1.8 5.2 3.8 8 5.4 9.3 0.5 18.6 0 27.8-0.8 15.4-1.8 31.1 0.9 46.3-2.6 38.9-4.9 78.3-2.2 117.1 1.5 23.5 1 47.1-1 70.6 1.5 52.7 2 105.4 1.4 158.1 1.9 20.2 0.7 40.5-0.4 60.7-0.6 4-13.5 2.2-27.8 2.8-41.7-0.4-19.4 1-38.9-2.2-58.2-0.7-21.7-3.5-43.3-4.2-65-10.3-9.7-25.6-9.1-38.7-11.2-23.5-1.2-47.1 0.1-70.6-0.5-26.7-5.5-54.1-2.3-81.2-2.9 0-1.8-0.1-5.4-0.1-7.2 18.4 0.9 36.9-1.1 55.3 0.4 25.4 1.4 50.9 0.8 76.2-0.6 28.5-3.9 57.3-2.2 85.9-0.3 37.3-0.7 74.6 3.6 112 1.5 43.2-0.9 86.4-0.5 129.6 1.2 18.6 4.3 37.7-0.4 56.4 3.3 12 0.9 24.1 0.6 36-0.9 20-1.1 40.1-0.6 59.9 2.6 26-1.1 52-0.2 78-0.7 10.7-2.3 21.4 0.8 32.1-0.5 16.8-1.3 33.7 1.2 50.3-1.6 8.6-0.8 17.3 0.2 25.7-1.5 34.5-6.1 69.4 0.3 104-1.7 20.6 0.5 41.3 0.9 62 0.6 51.4-1.1 102.8-0.6 154.1-1.9 8.1-0.6 16.4-1.5 23.8-4.9zm136.1 9.1c-18 0.2-36.1-0.5-54 0.3-21.7 3.2-43.7 1.7-65.5 2.7-5.8 7.2-8.8 16-11.4 24.7-3.7 19.8 2.6 39.4 1.5 59.2 0.1 24-0.3 47.9 0.3 71.9 4.7 6.3 6.6 14.2 11 20.7 6.7 1.2 13.3-1.2 20-1.3 25.4-0.5 50.7-0.7 76.1-0.1 15.5 0.4 31.1-0.7 46.5 1.5 47.1 0.2 94.3 0.5 141.4 0.3 21-4.2 42.6-1.4 63.8-3.2 9.3-5.7 17.7-13.7 21.7-24.1 2.7-19.1 0.7-38.5 0.3-57.7-0.9-19.4 0.6-38.9-2.3-58-0.8-9.3 1.5-19.3-3.9-27.5-4.8-4.3-10.9-7.1-17.4-6.8-32.7-1.1-65.4-0.5-98.1 0-26.7-0.2-53.4-1.5-80.1-1-6.1 0.3-11.9-1.8-17.9-2.8-10.5 2.3-21.3 1.1-32 1.2zm-348 6c-34 0.5-68 0.1-102 0.3-8.5 0.1-17.1-0.5-25.6 1-18.7 1.6-37.9 0-56.4 4.3-16.3 1.5-32.7 0.1-49.1 0.7-2.9 15.5-6.9 30.9-7.6 46.7 0 8.5-2.3 16.8-2 25.3 2.6 26.1 1.9 52.4 3.5 78.5 2.2 7.3 4.9 15.5 11.6 19.8 28.5 1.6 57.1 0.1 85.6 0.2 21.3-0.2 42.7-0.3 64-1.2 18.5-2.1 37.3-1.5 55.9-1.6 9.1-3.6 19-3.7 28.2-0.5 32.6 1.2 65.3 0 97.9 0.2 9.4 0.3 18.5-2.6 28-2.2 5.6 0.3 12.7-1.9 16.6 3.4 0.3 1.8 0.8 5.2 1.1 7-11.3 0-22.7-0.2-33.8-2.1-21 3.9-42.6 3.2-63.9 3.7-17.4 0.6-34.9-1.4-52.3-0.3-5.5 0.5-10.4 3.5-14.6 6.8-0.5 18.6-0.5 37.3 0.1 56 4.4 21.2 3.9 42.8 3.8 64.3-0.8 7.7-3.8 15.6-0.3 23 3.1 6.8 1.7 14.3 1.9 21.6-0.3 4.8 3.2 8.7 4.7 13.1 10.6 1.2 20.4 5.8 30.9 7 21.9 1.8 44-0.9 65.7 2.6 42.1 0.9 84.2 0.7 126.3 0.3 4.8 0 8.9-3.4 13.8-3.5 30-2.2 60 1.9 90 1.2 30.5-0.2 61.1 0.9 91.6-0.3 3.6-4 7.6-8.5 7.1-14.3 1.1-35.4-1.1-70.7-0.8-106.1-0.5-13.4 1.1-27.2-2.4-40.3-0.1-8.9-0.1-17.8-4.3-25.8-7.3-3.2-15.4-2.2-23.1-2.7-24-1.2-48.1 0.7-72.1 0.4-9.9-0.3-20 0.5-29.6-2.2-14.8-2.8-29.9-1.8-44.7-3.8-5.3-0.8-10.6 0.8-15.8 1.3-4.9 0.6-9.4-1.5-14.1-2-4.3 0-8.3 1.6-12.4 2.4-1.6-1.6-3-3.3-4.5-5-10 6-21.7 5.2-32.9 4.5-4.2-2-8.9-4.8-7.1-10.3 15.6-0.8 31.3 0.9 46.8-1 5.5-7.1 7.5-16.5 7.2-25.4-0.2-12.7 0.6-25.4-0.9-38-0.4-20.7 0.1-41.5-0.9-62.1-1.1-14 2.6-28.8-3.3-42.1-7.7-4.2-16.9-6.6-25.8-5.9-47.3-0.4-94.7 1.1-142.1 1.5-12.6 2-25.3 1.2-37.9 1.6zm-725.4 15.6c-1.4 11.3 0.1 22.6 2.2 33.7 0.5 15.6 1.6 31.4-1.7 46.8-0.9 18.1-0.5 36.2-0.1 54.3 1.8 8.4 4.8 16.7 9 24.2 1.3 3.2 5.2 2.3 7.9 2.6 26.7-0.6 53.4 0.8 80.1 0.3 47.3 0.4 94.6-0.9 141.9-0.2 52-1.4 104.1 0.3 156.1-0.5 23 0.4 46.1 1.9 69.1 1.3 2.1-4.9 4.9-9.5 7.4-14.1 1.4-5.7 3.2-11.4 4.5-17.1 0.5-22.7-0.9-45.3-0.4-68-0.4-25.1 1.7-51-6.5-75.1-10.7-0.4-21.4-0.5-32.1-1.2-27.3 1.9-54.7 0.7-82 0.9-50.7-0.5-101.4-0.3-152-2.2-10.6-1.5-21.3-1.1-32-1.2-52.7-0.3-105.4-1.1-158.1-0.3-5.7 4.1-10 9.7-13.3 15.8zm-837-11.6c-11.7 2.2-23.8 1.4-35.4 4.5-24.1 1.9-48.2 0.6-72.3 1.9-19.2 2.6-38.8 1.5-58.2 1.2-3.5 6.1-7.3 12-11.1 17.9-2.7 8.2-1.6 17-1.9 25.4 0.4 30.7-1.1 61.5 2 92.1 3.1 9.4 8.1 18.1 12.3 27.2 25.6 0 51.3 0.1 77 0.1 9.4-0.3 18.6 1.7 28 1.3 80 0.9 160-0.3 240 1.1 34.6-1.4 69.3-1.6 104-1.2 11.7 0.1 23.4 1.4 35.2 0.8 1.9-4.6 4.7-8.9 6.1-13.8 2.2-15.3 1.9-30.9 1.3-46.3-1.4-31.8 1.1-63.6-0.4-95.4 0.3-4.9-4-8-7-11.2-8.2-1.2-16.5-0.5-24.6-2.2-10.7-2.4-21.7-1.5-32.6-1.7-15.4 0.3-30.8-0.1-46.1 0.7-13.9 2.5-27.9 1.1-41.9 1.5-41.4-0.5-82.8 2.4-124.1 0-16.7-2-33.4-6.2-50.3-3.9zm426.4 177.3c-22.7 0.1-45.3 1.7-68 1.5-63.4 0.9-126.8-1.2-190.2 1-22.6 2.1-45.5 7-68.2 2.8-8.8-2.6-15.3 5.9-19.3 12.6-0.3 15.2 0.2 30.5-0.5 45.7 0.1 20.6-4.9 41.1-1.5 61.6 1.8 19.5-0.1 39 0.8 58.5-0.3 4.2 4.9 4.7 7.7 6.4 23.5 3.2 47.5 3.3 71.2 1.1 41.3-1.1 82.7 0.3 124-0.6 40-0.6 80.1 0.4 120.1-0.4 11.3-2.8 23-2.7 34.5-1.7 9.1 0.8 18.2-0.4 27.3 0.3 26.2 5.9 53.3 5.9 79.9 4.3 13.1-1.1 28.5-8.8 29.6-23.3-0.5-53.8 0-107.6-1.8-161.3-5.3-2-10.4-4.7-15.8-6.4-18.3-4.5-37.2-2.9-55.8-3.2-24.7 0.4-49.4-0.6-74 1.1zm175.2 3.4c-9.3 5.6-11.4 16.9-13.6 26.7-4.4 12-3.5 25-6.2 37.4-0.6 18.3-0.5 36.6 0 54.9 3.6 21.1-0.1 43.9 10.1 63.6 6.1 6.6 15.3 4.3 23.3 5.4 46.1 5.5 92.6 1.4 138.9 0.9 12.6-3 25.5-0.5 38.3-1.3 16-1.1 32 0.1 48-0.3 12.3-0.9 23.8 4.2 36.1 4 48.7-0.6 97.3-1.3 146-2.7 15.5-2.5 32.9 2.1 46.5-7.9 2.8-5.7 2.8-12.3 2.8-18.5-0.6-28.7-0.2-57.3-1.2-86-0.6-14-0.1-28.2-2.6-42.1-0.8-7.9 0.1-16.2-4.1-23.3-3.2-3.3-6.5-6.3-9.9-9.3-25.8-0.8-51.7-0.2-77.6-0.3-11.7 0.2-23.5-0.7-35 1.3-12.1 1.5-24.2 0.7-36.2-0.7-54.3-1.7-108.6-0.2-162.9-0.9-14.4-2.7-29.3-2.3-43.9-2.2-27.4 0.6-54.7-1.2-82-0.2-4.9 0.5-10.3-0.7-14.8 1.5zm481.7 4.8c-1.3 7.7-4.1 15-6.2 22.5-1.4 12.9 0 26 1.8 38.9 0.5 22.7 0.5 45.5 1 68.2 2.2 11.6-0.8 24.1 4.3 35.2 2.4 5.5 4.4 11.2 6.9 16.7 9.9 0.7 19.3 4.5 29.2 3.8 41.4-0.1 82.7 1.8 124.1 0.8 24 0.6 48-1.3 72 0.1 27.3-0.9 54.7-0.5 82-0.9 8.9 0.3 18.1-1.1 26.6 1.9 5.5 2.2 11.7 0.4 17.2 2.4 0.4 0.9 1.2 2.5 1.6 3.4-3.7 1.5-7.6 2.8-11.6 3-19.3 0.6-38.5 2.1-57.8 1.3-11.2 0.2-22.4-0.9-33.5 0.4-5.9 5-12.5 11.4-12.4 19.7-1.3 25.3-0.6 50.6 0.6 75.8 4.3 19.2 0.4 39 3.8 58.3 1 8.7-0.1 18.1 4.1 26.2 2.2 4.7 3.4 9.8 4.4 15 18.8 2.2 37.8 0.8 56.7-0.1 4.8-0.6 9.3-3.2 14.3-2.7 6.8-0.3 13.1 3.1 19.9 2.8 11.2 0.1 22.4 0.9 33.6-0.2 12.2-5.1 25.7-1.3 38.5-2 32-0.6 64-1.3 96-1.2 51-1.9 102.1-0.3 153.1-1.6 12.9 0.1 19.2-13.2 24.2-23 1.2-25.1 0.2-50.2 0.6-75.3-0.5-24 2.6-48 1.4-72-0.4-12.3-14-19.7-25.1-19.8-34.1-0.7-68.1 1.2-102.2 1-25.2-0.1-50.4 0.6-75.4-2.6-14-2.1-28.1-0.6-42.1-1.6-8.3-2.5-17.4-3.2-25.7-0.5-9.4 2.8-19.3 0-28.9 0.4-11.7 0.7-23.7 2-35.2-0.6 0.3-1 0.8-3.1 1.1-4.1 3.7-2.9 9.7-0.4 14.3-1.2 7.9-0.9 15.6 3.7 23.5 1.1 11.2-3.7 22.5 1.5 33.9 1-0.2-1.1-0.5-3.4-0.6-4.6 9.8-2.3 18.5-7.6 26.2-13.9-0.8-12.2-0.6-24.6 1.6-36.6 1.2-11.6-1-23.1-4-34.2-2.2-7.7-1.6-15.8-1.8-23.8-0.4-22.1-2.6-44.1-1.8-66.2 0.3-4.7-0.9-12.3-7.1-12.1-38.3-1.7-77 1.6-115-4.9-61-0.9-122 1.9-183-0.5-44 0-88.1-0.2-132.1-0.2-6.5-0.6-11.6 3.9-17 6.5zm-990.6 195.1c-10.8 2-21.5-1.2-32.3-0.7-76.9-0.1-153.8 2.3-230.6 3.6-0.9 5.8-1.4 11.7-2 17.6-0.9 10.2-4.8 20.1-4.8 30.5-0.6 17.7 0 35.5 0.3 53.3-0.8 16.2 1.8 32.2 3.7 48.2 1 8.2-0.4 17.1 3.8 24.7 2.5 5.2 5.1 10.3 8.9 14.7 7.7-0.9 15.2 0.7 22.6 2.4 33.4-0.3 66.7-1.9 100.1-0.7 38 1.4 76-0.7 114-0.8 28.5-2.7 57.2 0.6 85.8 0.6 46 2.6 92.2 0.8 138.3 0.8 8.8-0.1 17.6-1.2 26.4-0.9-0.1-8.4 1.4-16.7 2.2-25 0.6-27.3-0.1-54.7 0.3-82 0.4-28.3 0.9-56.5-0.3-84.8-11.3-8.2-25.7-4.7-38.7-5.2-56.6 0.5-113.3-0.7-169.9 0.6-9.4-0.3-18.4 3-27.8 3.1zm282.7-2.8c-12.1 4.2-25.3 9.2-33.2 19.8-3.4 13.2 1.3 27.2-1.3 40.6-2.6 10-2.1 20.5-2 30.8 0 12.3 5.9 23.6 5.7 35.9 2.7 19.6-4.3 39.7 1.3 58.9 5.4 9.1 16.9 10.1 26.4 10 8.8-0.6 17.4 1.6 26.1 1.4 26.7 0.1 53.3 0.4 80 0.3 30.7-0.7 61.4-1.1 92 0.3 38-1 76 1 114-0.5 43.8-0.2 87.6-1.1 131.3-2 7.1-2.6 11.9-9.5 15.2-16 2.1-4.6 5.8-8.9 5.5-14.2 0-41.4-0.1-82.8-0.8-124.2 0.3-11.5-7.9-20.2-14.7-28.5-3.7-4.6-7.8-10.7-14.4-10.1-20.1-0.3-40.1 1.7-60.1 1-57.3-0.1-114.6 3.1-172 1.6-37.3 0.3-74.7 0.5-111.9-2.6-10.9 0.7-21.3-3.3-32.2-2.9-18.3 0-36.7-0.9-54.9 0.4zm600.9 2.2c-8.1 0.2-15.9 4.1-24.1 2-19.2-1.4-38.4-0.3-57.7-0.4-6.8-0.4-12.4 3.9-18.7 5.5-11.5 2.1-22.7 6.2-32.6 12.3 0.1 33.8-2.3 67.8 1.9 101.4 0.2 19.2-0.3 38.4 0.3 57.5 1.9 5.9 4.2 12.5 9.3 16.4 22.5 0.8 45.1 0.1 67.7 0.6 13.3 0.5 26.8-0.5 39.8 2.4 20.7 0.9 41.5 0.5 62.2 1 21.3 1.9 42.7 0.7 64 0.9 9.4 0.1 18.7-3.4 28.1-1.2 41.2-0.8 82.6 0 123.8 2.8 20-0.8 40.1-0.2 60.2 0.1 4.7-0.6 10.6 0 14.1-4.1 4.2-6 8.5-12.6 8.3-20.2 1.1-24.7-0.1-49.5-1.6-74.2-3.8-18.4-0.6-37.3-3.3-55.8-0.8-5-0.1-10.5-2.5-15.1-6-8.8-12.2-17.4-18.3-26.1-2.4-3.4-6.5-5.8-10.7-5.5-44.1-1.3-88.1 0.3-132.2 0-8.4 0.4-16.4-3.2-24.9-2.8-45.7-0.5-91.4-0.4-137 0-5.6-0.1-10.7 2.3-16.1 2.5zm1125.9 2.4c-21.7-3.6-43.8-2.1-65.8-2.4-77.3 0.6-154.6-0.7-231.8 0.7-8.6 5.1-14.3 16-13.7 26.1-0.2 23-2.8 45.9-4 68.8-2.8 14.3-1.5 28.9-1.7 43.3-0.5 12.7 3.1 25 6 37.3 4.7 7.9 11.1 17 21.2 17.4 25.4 0.6 50.7 2.1 76.1 2.2 6.3 0 13.8 0.9 17.7 6.6 3.3-0.3 7-0.6 8-4.4 12.8 0.1 25.5 0 38.2 0.6 23.9 3.2 48 1.6 72 2.9 28-0.4 56-0.8 84 0.1 14.6-0.5 29.2 5.1 43.6 1.5 3.6-1.6 9.5-1.9 9.7-6.9 1.4-7.4 4.9-14.2 6.6-21.5 0.6-11.9 0.3-23.9 0.3-35.9 0.3-12.1-4-23.8-3.4-36-2.7-18.5-2-37.3-1.4-56 1.4-10.5 2-21.2 1.6-31.9-1.6-7.4-8.9-12.3-15.9-14-15.9-3.2-31.5 4.1-47.3 1.5zm-2505.1 193.3c-7.9 5.5-10.5 15-12.4 23.9-4.9 34.9-0.5 70.5-6.9 105.2-2.2 18.1 0.6 36.4 5.2 54 4.4 1.4 8.6 3.5 13.3 3.2 33.4 0.1 66.8-0.1 100.2 0.1 6.9-0.2 12.8 5.3 19.7 3.5 9.3-2.5 19.2-2.5 28.5-0.2 6 1.5 11.7-1.6 17.7-1.4 10-0.2 20 0.5 30 0.5 15.3 0 30.6 2.6 46 1.4 27.4 0.9 55.4 2 82.3-4.4 19.2-0.5 38.9-1.6 57.9 2.4 18.6 0.6 37.3 0 55.8 1.8 8.3-0.1 16.8 1.9 24.9 0.2 6.4-5.6 8.8-14.2 9.3-22.5 5.8-9.1 1.5-20.1 3.6-30.1 1.8-8.1 1.4-16.3 1.7-24.5 0.3-30.7 0.7-61.4 0.2-92 0.3-3.2-1.6-5.8-3.1-8.4-7.6-1.3-14.9-3.7-22.6-4.2-34-1.1-68-0.6-102 0.3-26.9-1.2-53.8 4.2-80.6 0.4-29.1-2.5-58.3-0.2-87.4-1.1-10.5-2.7-21.3-3-31.9-4.9-12.7-1.5-25.7 0.1-38.4-1.2-4.6-0.9-9.1-2.1-13.7-2-23.3-0.6-46.6-0.8-70-1.5-9.1 0-18.4-0.9-27.3 1.5zm514.7 4.5c-6.5 3.3-15.7 3.9-19 11.3-8.9 16.7-9.8 35.9-11.2 54.3-0.4 26.4-0.2 52.8-0.3 79.2-0.3 8.8 2.3 17.3 2.4 26.1 0.2 6.4 4.7 11.3 9.7 14.8 8.3 1 16.7 0.5 25 0.6 20-0.4 40 1.9 60 1.6 20.7 0.7 41.4-0.8 62 0 52.1 0.6 104.1-0.2 156.1-1.8 34.6-1.4 69.3 0 103.9-1.2 15.3-1 30.7-0.3 46-1 9.7-3.2 18.2-8.9 25.3-16.3 2.7-6.6 1.8-13.9 2.1-20.9 2.6-26.6 0.4-53.4 2.1-80 2.2-12.6 1.4-25.4 1.8-38.1 0.3-5.5-0.4-10.9-2.6-16-2.3 0.2-4.6 0.5-6.8 1-8.9-1.2-16.6-7.1-25.7-6.5-24.1-0.5-48.1-0.9-72.2-1.4-15.4-0.2-30.6-2.7-46-2.3-14.9-0.6-29.8 1.6-44.8 0.6-12.4-0.6-24.9-0.5-37.4-0.3-6.1 0.7-11.5-3.5-17.7-2.9-26 0.8-52.1 0.7-78.1 1.6-23.3-0.4-46.7-0.6-70-1.3-21.5-0.5-43.1 0.4-64.6-1.1zm1490.8 1.7c-8.6 1.7-17.3 2.5-26 2.6-4.5 6.1-9.2 12.2-11.4 19.6-3.4 7.7-2.3 16.2-2.1 24.4 0.1 7.5 0.4 15 1.8 22.4 0.7 14 0.5 28 0.4 42-0.1 7.4 2.2 14.5 2.3 21.9 1.4 16.9 0.7 33.9 1.8 50.9 4.8 1.8 9.5 4.5 14.8 4.4 22.1 0.4 44.1 2.8 66.2 2.3 22.5-0.5 45.1 1.1 67.4-2.7 9.2-2.9 19-2.7 28.6-3.1 7.8-0.2 15.8-0.3 23.2 2.7 11.9 4 24.6 1.5 36.9 1.9 29.2 3.3 58.6 1.6 87.9 2.1 28.7-0.1 57.5-0.1 86.2-0.4 3.8 0.2 7.4-1.5 10.8-3.2-0.9-55.6 0.3-111.2-0.3-166.8-1.9-7.3-9-13.3-16.7-13-9.6-0.2-19.3 0.8-29 0-1.8-1.5-3.5-3-5.2-4.6-4.4 2.1-8.5 5.5-13.7 4.8-14.4-0.7-29.2 1.3-43.3-2.3-25.5-2.2-52.1 2.1-76.8-6.1-19.9-0.7-39.9 1.2-59.9 0.1-47.9-3.5-96 0.1-143.9 0.1zm-932 2.7c-19.5-0.1-38.9-1.2-58.3-0.6-8.5 0.6-16.1 5.2-22.3 10.8-3.1 2.3-3.4 6.1-2.5 9.6 6 19.1 1.2 39.3-2.1 58.5-1.5 22-2 44.1-1.7 66.1 0 4.8 3.3 9 3.2 13.8 0.2 6.2 0.6 12.5 2.8 18.3 30.2 0.5 60.3-2.2 90.5-1.2 28.7 0.8 57.4 0 86.1 0 22.7-0.3 45.5 0.6 68.1-1.4 13.7 1.1 27.8 1.4 41.1 5.5 23.6 1.8 47.3 1.4 71 3.3 10.1-0.7 19.8 3.1 29.9 2.6 12.6-0.5 25.4 2.3 37.9-0.6 9.9-3.1 20.6-0.7 30.4-4.3 6.4-2.3 13.2 0.1 19.8-0.3 6.5 0.2 11.8-4.1 17.6-6.5 2-7.5 0.7-15.5 1-23.3-0.6-28-1-56-0.2-84-0.3-19.2-0.7-38.4-0.9-57.6-16-2.4-32.6-0.4-48-5.6-23.3-1.2-47 1.9-69.9-3.2-12.6-1.1-25.1 1.6-37.7 1.1-23.4-0.3-46.8 1-70.1-1.2-7.5 0.2-15-0.7-22.3-2.6-25.2 0.3-50.4-1.3-75.6-0.6-21.4 0.6-42.7 0.3-64.1 0.6-8.1-0.2-15.7 3.2-23.7 2.8zm632.1 3.6c-13.8 3.7-28.2 1.1-42.2 2.1-47.4 0-94.7 0.5-142.1-0.6-8.1-0.6-16 1.1-23.4 4.4-1.8 16.2-0.8 32.9 2.2 48.9 1.2 8.2-2.9 15.8-3 23.9-1.9 16 0.9 32.1-1.2 48.1-0.5 3.9-1.8 7.8-1.1 11.8 2.4 11.4 6.2 22.4 9.2 33.7 7.1 6.3 17.2 7 25.6 10.8 17.2 1.5 34.5 0.1 51.7 0 44.6 0 89.3-0.2 134 0 54.7 0.5 109.3-0.5 164 0.5 23.7-0.4 47.7 1.1 71.2-1.4 5-5.9 9.9-13.2 9.1-21.3-0.9-21.4 0.4-43-3-64.1-0.6-24.1 0.5-48.2-0.4-72.2-0.5-9.9-5-20.1-13.4-25.5-17.7-3-35.7-0.2-53.5-1.1-28 0.5-56.1-2.1-84.1-0.2-33.2 2-66.5 0.2-99.6 2.2zm-770.3 183.9c-56.4 0.5-112.7 0.4-169.1 1.7-8.4 10.9-19.2 21-21.6 35.2-0.4 6.1-0.1 12.2-0.3 18.3-4.2-2-11.8-2.1-11.7-8.3 0.2-7.8-1-16.5-7.7-21.5-6.3-4.6-11.8-11.2-11.2-19.5-37.4-1.9-74.9-1.3-112.4-1.3-47.3 0.7-94.7 0.9-142 1.4-30.1-0.2-60.1-1.5-90.1-2.2-6.1-0.1-11.8-2.5-17.9-2.1-34.8-0.3-69.6-1-104.4-0.5-3.4 7.6-9.1 14.1-11.2 22.3-2.7 9.8-5.3 19.9-3.4 30.1 2.7 12.9 2.1 26.2 1.6 39.3-4.5 24.5 0.6 49.3 0.4 74 0 6.6 3 12.7 4 19.2 16.9 2.2 34 1.3 51 1.4 41.3 0.1 82.6-6.5 123.9-1.6 15.4 0.9 30.8-0.3 46.2-0.6 29.5-1.4 59-0.6 88.5 0 15.3 0.1 30.6 1.3 45.8-0.4 5.9-0.6 11.7 0.6 17.6 1.3 7.4 1 14.5-2.2 21.9-1.6 10.1 1.1 20.1 2.9 30 5 18 0.2 36.1 0.6 54.1 0.7 4.9 0.8 8-3.4 10.9-6.5 2.5-8.9 6.7-17.5 7.1-26.9 0.5-8 1.6-16 1.5-24.1-1.1-25.2-1.9-50.4-2.9-75.6 3.4 1.1 6.9 2.4 10.4 3.4 0.3 22-1.8 44.2 1.8 66 1.1 14 0.1 28.2 1.5 42.2 2.1 5.8 6.6 10.5 9.9 15.7 19.9-0.1 39.8-0.5 59.8 0 27.9 1.8 55.9-0.5 83.9 1.5 28.7 1.9 57.4-1.3 86.1 1 16 0.5 32 0.5 48-0.3 21.4 0.2 42.9 1.8 64.2-1.1 10.6-1.1 21.2-0.3 31.8 1 35.6 2.6 71.3-0.6 107-0.1 5.2-6.8 10.3-14.7 10.3-23.6 0.5-19.4-0.1-38.7-0.6-58.1-3.5-30.3-1.8-61-4.5-91.4-0.9-2.9-2.1-6.2-5.3-7.4-7.4-2.3-14.8-5.3-22.7-4.8-39.5 0-78.8-3.2-118.2-2-54 1.4-108 1-162 0.8zm324.7 5c-4.2 4.6-6.1 11.5-5.9 17.7 0.1 14.8-0.5 29.6 2 44.2 1 28.6 2.8 57.3 1.3 85.9 0.1 8.9-0.4 18.9 5.7 26.2 3.8 3.9 7.9 9.1 14 8.5 29.4-0.2 58.8-0.1 88.2-0.5 21.3-1.4 42.7 0.5 64 0.2 28-0.4 56-0.5 84 0 17.4-0.6 34.8 1.2 52.2-0.7 5.6-1 9.9 5.2 15.6 3.3 8.7-2.3 18.7-4.8 27 0 32.3 3.1 64.8 3.8 97.2 4 10.4-0.7 18.3-8.7 24.7-16.2 4.5-11.6 7-24.5 4.9-36.8-1.3-27.3-0.4-54.6-1.1-82-1.8-13.1-0.4-26.5-2.8-39.6-6.5-11.8-22.3-6.7-33-11.3-32.1-2.1-64.4-3.2-96.7-2.8-59.3 0.1-118.7 1.1-178 1.4-51.4-0.7-102.7-1.4-154.1-2.7-3 0.3-6.7-1-9.2 1.2zm498 2.7c-5.2 3.6-11.7 7.1-14 13.4-1.2 18.6-0.5 37.3-3 55.7 2.5 24.7 0.5 49.5 2.9 74.2 2.1 13.3 4.6 26.5 5.2 40 5.4 0.3 10.8 0.4 16.2 0.4 8.3 0 15.7 4.9 24 5.1 16 0.6 32-0.3 48-0.4 10-0.3 20.1 0.5 29.9-2 36-1.1 72.1-0.5 108.1-1.8 23.8 1.1 47.5 1.4 71.3 1.3 6.7 4.6 15.1 2.8 22.7 3.1 26.5-1.3 53.1 0.5 79.6-0.7 8.5-3.4 18-3.6 26.3-7.4 9.9-4.2 11.1-16.3 11.2-25.7-0.3-37.3 0.2-74.7-0.5-112.1-2.2-12.8-1-25.8-1.5-38.8q-2.2-2.3-4.1-4.7c-77-0.9-154 0.5-231-0.5-59.4-1.4-118.7-1-178.1-1.1-4.4 0.2-9.4-1-13.2 2zm-1446.7 188.1c-48.7 1.4-97.3-0.9-146 0.2-54.7 1-109.4 0.4-164.1 0.3-3.6-0.1-7.8 1.4-9.3 5-3.2 6-6.6 12.3-6.7 19.4-2.4 33.3-1 66.7-1.1 100.1 0.5 14.4-0.9 29 2.8 43.2 3.9 6.9 12.6 5.8 19.3 7.4 11.5 3.3 23.6 0.1 35 4.2 42.6 1.5 85.4 1.2 128.1 2.8 19.3-0.6 38.5 1.7 57.8-0.1 10.7 1.4 21.6 0.5 32.1 3.2 17.4 1.2 34.9 0.4 52.4 0.9-1.9 2.5-3.7 5-5.7 7.4-17.5-0.4-35-1.5-52.6-1.2-5.3 2.4-10.2 5.8-15.1 9.1-3.4 7.9-6.8 16.2-6.8 25-0.1 22.7-1.1 45.4-0.3 68.1 0.9 18.3-1.4 36.6 0.9 54.9 1.2 6 3.7 11.7 5.2 17.7 20.1-0.1 40.1-0.3 60.1 0.1 32.7 0.6 65.3-0.4 98 1 12.6 1.1 25.3 0.7 38 0.9 15.8-0.2 31.8 0.5 47.5-2.1 2.5-0.3 5.2-1.3 7.8-0.5 18.5 4.8 37.9 2.3 56.8 2.5 31.2-2.4 62.6-2.5 93.9-2.4 32.1 0 64.2-0.4 96.3-0.4 7.1 1.2 9.2-6.9 11-12.1 1.4-13.2-0.3-26.5-2-39.5-0.6-39.7 0.1-79.5-0.3-119.2-4.3-1.3-8.6-2.5-13-2.5-75.4-1.5-150.7 0.8-226-0.3-59.1-0.2-118.3 1-177.4 1.1 0-2 0-6 0-8 46.1-0.9 92.3 1.8 138.4-0.2 5.4-8.6 7.9-18.7 8.4-28.7 3.7-16.7 1.1-34 5.2-50.6 0.4-25.2 0-50.5 0-75.8-0.8-7.7-1-15.6-2.8-23.2-5.8-6.9-15.5-7.5-23.6-9.6-42.1-0.2-84.2-0.1-126.3 0-5.4-0.3-10.6 1.7-15.9 1.9zm188.4-2.7c-2.8 6.3-6.7 12-10 18.1-4.2 32.4 0.8 65.1-3 97.5-0.3 14.7-0.1 29.5-0.3 44.2-0.4 8.9 4.3 16.8 7 24.9 7.2 1.5 14.5 0.2 21.8-0.1 40.7-1 81.4 0.1 122.1 0.5 14.7-1 29.3 1.7 44 1.1 26-0.1 52-0.2 78-0.2 29.3-0.9 58.7-1.1 88 0 42.5-0.1 85.1 0.7 127.7-0.1 8.9-9.5 9.7-23.9 8.6-36.3-4-25.1-1.2-50.6-1.4-75.9-0.2-18.2 2.6-37.8-6.1-54.5-5.6-8.2-15.8-7.6-24.4-9.7-9.9-5.2-21.5-4.2-32.4-4.2-14 1.5-28-0.9-42 0.5-30 0.3-60 0.5-90 0-10-1.3-20 0-30-0.5-24-0.8-48-1.1-72-1.9-15.3-0.6-30.8 0.4-45.9-2.4-46.5-0.1-93.1-1-139.7-1zm627.6 6c-37.2 0.8-74.5-1.9-111.7 0.4-5.9 1.7-11.4 5.2-14.3 10.8-2 4.7-7.8 7.2-8 12.6-1 13.9-0.9 27.9-1 41.9-0.1 28-1 56.1 0.8 84.1-0.1 10.1 6.3 18.5 8.2 28.2 3.6 1.9 7.9 1.3 11.9 1.5 40-0.5 80.1-1 120.1-0.2 78.6 1.8 157.3 1.2 236 0.8 36.7-1.3 73.4-1.3 110.1-1.2 3.7 0.2 7.1-1.2 10.6-2.3 6.7-23.1 3.9-47.2 4.1-70.9 0.4-8.7-1.8-17.3-1.7-26-0.4-20-1-39.9-1.6-59.9 0.2-3.2-2.7-5.2-4.2-7.7-2.6-3.2-4-8.8-9.2-8.3-12.8-0.7-25-5.8-38-5.6-45.3-0.5-90.7-0.1-136.1-0.4-58.7 0.1-117.4-0.5-176 2.2zm404.4 0.6c-9.6 5.1-16.7 13.7-24.5 21.1-3.9 3.5-6.8 8.5-6.8 13.9-0.4 12.7-0.5 25.5 1.6 38 0.7 30.7-0.1 61.5 1 92.2-0.4 5.6 3.3 10 6.9 13.9 11.7 1.8 23.6 0.5 35.4 1 37.9 0.3 75.8 0 113.7-0.2q-1.2 5.2-2.5 10.3c-19.1 0-38.2-0.3-57.2 1.2-36.7 0.3-73.4 0.2-110.1 0.1-39.2-2.3-78.5-3.7-117.9-3.5-26.6 1.8-53.3 0.9-79.9 1.3-7.7 0-14.7 3.5-21.3 7.1-3.6 14.5-2.6 29.8-1.6 44.6 2.8 31.6 0.3 63.4-3 94.9-1.1 6.6-2.9 13.7-0.9 20.3 3.7 5.4 9.2 9.5 15.1 12.1 15.8 0.4 31.7-0.1 47.6-0.4 12.8-2.4 26-2.6 38.8 0.2 35 1.7 70.2 0.5 105.3 0.8 13.4 1 26.8 1.1 40.2 0.4 25.9 1.4 51.8-0.6 77.7-0.3 38 1.3 76.1-1.7 114.1-0.6 11-3.6 23.8-4.2 33-12 2.3-4.4 5.5-8.5 6.6-13.3 1-10 0.6-20 0.5-30-0.5-14 0.9-28.2-2.9-41.9-0.4-22.7-0.1-45.5-0.2-68.2 0.2-4.6-2-9.3-5.2-12.5-10.3-0.5-20.7 0.9-31-0.3-2.7-2.3-5-5.1-7.3-7.7 14.8-0.8 29.6 0.1 44.4-0.4 16-0.6 32 1.6 48 1.1 31.3-0.8 62.7-0.4 94.1-0.9 4.2 0.2 8.2-1.1 12.3-2 11.4-1.4 23.4-1.2 34.1-5.7 9.9-3.6 21-4.2 30.1-9.2 6.3-11 11.7-23.3 11.3-36.2-0.8-33.4-1-66.9 1.3-100.3 1.5-8.4 2-16.9 1.7-25.4-31.6-2.2-63.3 0.3-94.9 0.3-53.4 0.2-106.7 3.4-160 1.9-27.2-5.7-55.3-0.4-82.5-5.5-19.2-0.6-38.4-0.4-57.6-0.9-15.8-0.8-31.8-2.7-47.5 0.7zm453 4.3c-0.9 29.6 0.5 59.2-1.3 88.8-0.4 11.4-0.2 23-2.6 34.3-1.6 8.5 0.9 17.4-2.2 25.7-1.4 5.5-3.5 11.7-0.9 17.3 1.8 3.1 3.9 6 6.2 8.8 19.1 1.5 38.4 0.4 57.5 1.2 5.3 1.1 10.7 2.3 16.2 2.2 60.5-0.2 121.1 0.8 181.7 1.5 47.3-0.4 94.7 0.8 142-0.6 7-2.8 12-10 14.9-16.8 1.6-8.8 0.7-17.9 2.5-26.7 2.5-10.8 1.6-21.9 1.8-32.9-0.3-13.5 0.2-27-0.8-40.5-2.3-13.7-2.1-27.8-3.6-41.6-1.1-6.5-1.3-13.6-5.6-19-9.5 0.2-19.2-0.9-28.7 0.3-10.5 3.7-21.7 2-32.5 2.1-22.5-1-45.1 0.3-67.6-0.4-12.5-3.6-25.6-1.9-38.4-2.5-16.7 0.2-33.4-1.6-50-0.3-31.4 1.7-62.7-1-94-0.4-19.4 0.2-38.7-1.2-58-1.7-12.2-0.2-24.6-1.5-36.6 1.2zm-1009.4 185.5c-14 1.5-27.9-1.2-41.8-0.2-33.4 2-66.8 0.5-100.2-0.2-11.3 0.1-22.6-1.7-34-0.4-11.8 1.1-23.7-0.7-35.6 0.3-7.3 0.8-7.4 9.4-7.9 15-5.3 14.4-1.7 30-3.8 44.9 0.1 31.2 0 62.6 2.7 93.7 1.4 11.8 14.7 14.7 22.3 21.5 4-0.8 8-2.6 12.2-1.7 9.8 1.7 19.7 1.2 29.6 1.7 6.1 1.1 12.2 2.6 18.5 1.6 15.2-2.7 30.7-1.1 46-0.5 10.1 0.4 20.4-0.5 30.1 2.6 26-0.2 52 1 78 0.7 31.3 0.8 62.6 4.8 93.9 2 33.6-0.9 67.2-2.9 100.8-2.9 21.4-3.8 44.5 1.5 64.4-9.2 3.2-6.2 7.2-12.3 7-19.5 1.8-35.4 0.5-70.7-0.1-106.1-0.3-13.6 0.1-27.3-1-40.9-22.9-3.5-46.3-2.3-69.1-6-22.7-0.4-45.4-0.5-68-0.8-25.4-2-50.7 0.7-76.1 0.8-22.4 4.6-45.4 0.3-67.9 3.6zm775.1 13.7c-2 29.4-0.9 59.1 1.8 88.4-0.5 12.5 2.1 24.7 2.5 37.1 1 11.9-1.3 25.4 7.5 35 5.4 2.4 10.9 5.2 16.9 4.8 28.8 0.2 57.5 1 86.3 0.9 33.9 0 68.1 4.9 101.9 0.4 10.7-0.6 21.3 1.9 32.1 1.5 31.3-2.9 62.6 0.8 94 0.7 6.9-0.8 13.1 3.1 19.8 3.7 20.8-3 42-0.5 62.9 0.3 5.4-6.3 13-11.5 16.5-19.2 1-18.7-0.1-37.6-2.2-56.2-0.5-30 0.2-59.9 0.1-89.9 1.1-8-6-14.8-13.7-15.3-8.5-0.6-16.7-1.8-24.5-5-15.6-1.2-31.4-0.7-47-1.1-31.3 0-62.7-0.9-94-0.9-82.5 1.5-165 0.4-247.5 1.6-6 2.1-13.5 5.6-13.4 13.2zm691.7-13.5c-18.1 2.8-36.5 1.7-54.8 1.8-23.3-0.6-46.7 0.1-70 0.6-10.3 3.5-21.3 2.3-32 2.9-24.5 0.7-49-0.7-73.4 0.5-3.6 2.8-6.9 6.5-7 11.3-2.7 21.9 1.2 44.2-2.3 66.1-1.1 19.9-0.4 39.9-0.5 59.9-0.5 12.1 2.4 24 2.3 36.2 4.6 5.5 12.4 6.1 19.2 6.3 51.6 0.9 103.3-0.9 155-1.6 12.3-3.2 25.2-1.5 37.8-3.3 7.6-1.4 15.2 1.4 22.9 0.9 19.2-1.7 38.6-3.7 58-2.4 20.7 0.3 41.3-1.5 62-0.9 5.7-1.2 11.4-3.7 16.3-6.9 3.3-4.8 7.3-10 6.8-16.1 0.2-20.1-0.8-40.2 0.9-60.2 0.2-24.7 1.8-49.4 0.6-74.1 0.2-7.3-6.9-10.5-12-14-10.6-3.3-21.1-8.4-32.6-6.8-32.4 0.1-64.8-1.3-97.2-0.2zm-2444.2 185.7c-8.2 4.7-10.7 14.7-11.5 23.5-1.2 28.4 0.7 56.9 0.1 85.3 4.7 19.1-1.9 39.5 5.5 58 11.6 6.7 25.8-0.2 37.8 5.5 44.2 1.9 88.6-0.6 132.8 2.8 10.3 1.7 20.9 0.1 31.1 2.7 11.8 2 23.8 1 35.6 0.7 8.1-0.2 15.8 2.6 23.8 3.3 16.8 0.6 34-0.6 50.5 2.9 8.5 0.1 17.1-0.2 25.4-1.9 14.8-1.3 29.6 0.3 44.3-1.8 32-2.2 64.2-1.3 96.3-2.7 2.2-3.8 5.1-7.3 7.1-11.4 4.3-16.1 3.7-32.9 4-49.5-0.1-22.7-0.1-45.4-0.3-68 0.1-10.2-3.3-20-3.1-30.2 0.3-7.8-4.2-15.4-10.3-19.9-16.6-1.2-33.4 1.2-49.8-2.7-16.6-1.1-33.3-0.4-49.9-0.8-12.6-1.4-25.3-0.9-38-1.1-60-0.4-120-0.2-180-0.2-45.4 0.4-90.8-1.3-136.1-1.5-5.9 0-10.6 4-15.3 7zm671.4-0.7c-14 1.3-27.9-2.7-41.9-1.1-31.3 3.5-62.7-2.3-94 0.6-12.5 1.5-25.1-0.4-37.5 1.2-2.9 2.4-6.8 5.1-6.4 9.4-0.3 32.7 0.1 65.3 0.5 98-0.7 17.8-0.8 35.7 0.3 53.6 2.1 5.9 4.7 12.9 11.2 15.1 12.4 0.8 24.9-1.1 37.4 0.2 15.7 4.9 32.3 0 48.4 3 18.6 3.2 37.3-1.3 56-0.4 34.7-0.2 69.4 1.5 104-0.6 38.6 1.6 77.3 0.5 116 1.5 28-0.7 56.1-0.7 84.1-0.7 12.6 0.7 24.1-5.1 36.4-6.7 2.4-4 4.6-8.2 4.2-12.9 0.1-38.5 0.5-77.1-1.8-115.6-2.9-8.4-0.9-17.5-4.2-25.8-1.3-5.1-5.8-8.5-10.1-11.2-8-2.6-16-5.8-24.6-6.1-19.3-1-38.7-1-58-2.2-12.1-0.5-24.6 2.3-36.3-1.8-9.3-0.8-19.1-2.4-28.1 1-5.8 1.8-11.8-0.2-17.5-1.1-11.4-1.1-23.3 1.7-34.2-2.6-2.8 1.4-5.5 3.2-8.4 4.4-4.7-0.8-9.1-2.5-13.9-2.3-17.9-0.2-35.8-0.3-53.8-0.1-9.4-0.1-18.3 3.5-27.8 3.2zm495.5 2.7c-29.2 0.4-58.4-0.2-87.5 0.6-15.5 2.3-31.5 3-46.8-0.1-9.1-1.4-18.2 3.5-24.4 9.8-12.2 24.1-4.1 51.5-6.7 77.2-1.9 17.2-0.9 34.6-0.6 51.9 0.2 8.9-1.3 18.1 1.6 26.7 1.8 2.3 3.6 5.3 7 5 10.7 0.6 21.6 0.4 31.9 3.7 11.5 4.2 23.9 3.3 36 3.3 23.5-0.5 47 0.6 70.5 1.9 28.5 1.1 57.1 0.1 85.6 0.7 13.1 3.3 26.5 1 39.8 1.6 22 1.4 44.1 1.1 66.1 0 22.7 0 45.3 2.2 67.9 1.8 13.8-1.4 27.8-0.1 41.6-1.5 12.4-3.3 25.5-3.1 38.1-5.2 7.3-6 16.4-13.5 15.7-23.9-0.2-16.1 0.7-32.3-1.9-48.2-0.7-34.1 1.9-68.3-1-102.3-8.8-0.6-17.6-0.3-26.4-0.9-14.6-3-29.7-0.6-44.3-3.1-15.9-0.9-31.9-2.6-47.7 0-11.3 2.5-22.6-1.4-34-0.7-21.3 0.7-42.8-2.6-64 0.8-38.8-2.2-77.8-3.3-116.5 0.9zm348.4-0.4c-5.6 7.3-3.1 17.3-4 25.9-2.4 44 0 88 0.4 132-0.6 6.5 3.8 11.8 7.5 16.6 16.1 0.6 32.3-0.3 48.4 0.4 14.9 4.4 30.6 2.4 45.8 5.4 53.1 1.1 106.3 0.1 159.5 0.8 10.6 2.3 21.5 1.6 32.4 2.3 26.6 3.1 53.5-1.5 80.1 1.3 12.7 0.6 25.3-2.4 38.1-1.3 12.3 1.9 25 1.5 37.5 1 11.2-1.6 18.5-10.8 23.2-20.3 0.8-6.7 0.1-13.5 0.3-20.2-0.1-8.1 1.2-16.4-1.3-24.2-4.2-14.3-2.3-29.3-2.8-43.9 0.4-24-0.8-48-0.6-72-22.9-1.6-46.1 1.6-68.6-2.8-11.9-0.6-23.9-0.5-35.8-0.7-23.1 0.5-46.2-2.6-69.2-0.5-8.9 1.9-17.9 0.3-26.7-0.8-26-1.3-52.1-1-78.1-1.5-33.4-1.2-66.7 1.2-100 0.8-25.4-0.5-50.8 1-76.2 0.8-3.3 0.1-6.7-0.1-9.9 0.9zm499 4.4c-7.5 1.6-14.3 5.5-21.8 7.2-5 23.8 0.3 48.2-1.2 72.3-0.2 6.3-5.3 11.4-5 17.8 0 6.4 5.6 11.5 5 18.1-0.5 6.7-0.4 13.3 0 20-1 12.3-3 26.4 5 36.9 4.7 2.8 9.4 6.8 15.1 6.6 53.3 1.5 106.7-1 160 1.1 26-1.5 52.1-1.3 78 0.6q64-0.3 128.1 0c11 1.4 18.9-8.4 25.5-15.8 5.5-10.7 6.2-23.5 3.7-35.3-2.8-42.9 2.2-86.1-1.2-128.9-12.1-0.8-24.4-1.2-36.2 1.4-6.9 1.7-13.1-2.9-19.8-2.6-50 0.6-100.1 2.5-150.1 0.8-4.7 0-9.5 0-14.2-1.1-6.1-2.1-11.6 2.7-17.7 2.8-14.7-0.2-29.6 1-44.2-1.7-36.3-1-72.7-2.9-109-0.2zm-1451 180.7c-5.3-1.6-9 3.9-13.9 4.1-75.3-1.2-150.7-0.1-226 0.2-19.4 0.5-38.9-0.5-58.2 1.9-7.4 0.8-14.1 4.1-21.3 5.6 0.6 19.7 3.5 39.8-1.1 59.3-6.7 26-6.7 52.9-6 79.6 1.2 8.6 6.5 15.8 8.6 24.1 0.4 4.4 4.8 6.7 8.6 8.1 12.2 3.9 25.3 0.8 37.7 4.1 10.6 0.6 21 3.1 31.6 2.7 60.1 0.2 120.2 1.8 180.2-0.5 16.4-2.9 33.1-1.1 49.7-2.2 11.3-1.8 22.8-0.9 34.2-1.2 38.7 0.4 77.4-3.1 116-0.1 9.2-0.1 18.7 1.4 27.7-0.6 10.7-7.9 19.6-20.6 19.2-34.4 0-20.7-0.9-41.4-1.8-62-0.5-24.1 0.5-48.1 1.1-72.1-0.4-4.8 2.4-11.1-2.3-14.5-11.5-1.5-23.3 0.3-34.6-2.6-25.8-1.1-51.7-0.6-77.4-0.1-12 1.4-23.8-4-35.6-0.8-11.7 3.9-24.5 3.9-36.4 1.4zm330.2 1.6c-33.4 0.2-66.8-0.3-100.2 0.2-11 1.3-23 3.9-30.8 12.3-1.8 7.4-1.3 15.1-2.4 22.5-2.2 10.6-1.2 21.4-1.6 32.1 0.2 12.7-1 25.5 1.6 38.1 2.6 19.1 0.9 38.5 1.4 57.7 2.3 9.5 7.3 21.3 18 23.1 62.7 0.8 125.3-0.4 188-0.2 11.3-0.2 22.5-1.9 33.9-1.3 66-1.1 132-2.7 198-0.7 16.5 3.3 33.3 2.7 50.1 2.5 10.7-1.6 14.8-13 19.1-21.4 0.4-12.7-0.3-25.3-0.1-38-1 11.8-0.2 23.5-0.3 35.3-0.5 0.6-1.6 1.9-2.1 2.5 0.1-5.9 1-11.7 0.7-17.6-0.9-38-1.5-76-1-114-0.1-7.8 0.6-15.7-0.8-23.4-3.9-4.4-9.6-6.3-15.4-6.1-46.1-1.4-92.2-0.9-138.2-1.4-11.6-0.3-23.3 0.2-34.8-1.8-23.8-0.8-47.7-1.1-71.5-0.1 5.6-0.8 11.2-0.9 16.8-1.5-22.8-0.9-45.7-0.7-68.5-1.1-20 0-40.2-1.6-59.9 2.3zm544 5.7c-10 0.6-20 0.1-30 1-9.9 1.9-20.1 1.2-30.1 1.3-14.7 0-29.4 0.6-43.9-1.7-16.8-0.1-33.6-0.8-50.3-2.6-2.2 2.8-6.2 5.1-5.8 9.3-1.5 36.1 1 72.2-1.1 108.3 0.7 19.2-3.4 38.4-1.1 57.4 4.3 4.5 9 10.6 16 10.2 34.7 0.9 69.5 1.2 104.2 1.6 15.3 1.7 30.6 2.1 46 1.8 36-0.8 72-0.1 108-0.6 24.6-3 49.4-2 74.1-2.4 20.7-0.4 41.3 3.7 62 2.2 19.6-2.8 39.4-1.9 59.1-3.5 2.8-2.4 6.1-5.1 6.5-9 2.6-15.1 4.1-30.5 3.2-45.9-2.7-13.8-3.6-27.9-4.5-42 1.2-28.3 1.9-56.6 1.4-85-15.3 0.8-30.5-2.3-45.8-1.8-31.4-0.1-62.7-0.4-94.1-1.5-35.2-2.6-70.6-0.1-105.9-0.1-22.6 0.8-45.5-0.9-67.9 3zm427.8-0.2c-24.1 1.3-48.3-0.6-72.3 0.6-7.9 0.1-16.2-0.5-23.4 3.3-2.9 4.3-4.4 9.4-5.6 14.3-1.7 19.8 0.4 40-3.8 59.4-0.8 8.3 2.6 16.2 2.9 24.4 1.1 26.1-0.1 52.2 2.2 78.2 33.3 1.1 66.7-0.4 100.1 0.5 26.8-0.9 53.3 4 80 2.7 25.4-1.5 50.8 1.6 76.1-0.7 18.9-5 38.6-5.3 58.1-4 29.1 4 58.5 1.8 87.8 2 10.4-0.3 22.2 0.5 30.9-6.1 3.2-1.8 2.8-5.7 3-8.8 0-17.9 0.1-35.9-1.2-53.8-2.3-10.1-1.1-20.4-2.9-30.5-1.1-7.6-0.8-15.3 0.6-22.7 0.9-11.8 0.7-23.6 0.7-35.3 0.1-8-4.1-15.9-11.8-18.9-16.6-4.9-34.1-5.8-51.3-5.7-29.3-0.2-58.7 0.1-88-0.1-23.3-0.2-46.7-1.7-70-1.2-16 0.7-32.1-2.8-48 0.2-15.3 2.6-31-1.4-46.2 2.3-6 1.1-11.9-2.1-17.9-0.1zm468.2 4.2c-30.7-0.8-61.5-0.2-92.1-1.7-10.2-0.1-21.1-1.1-30.3 4.1-0.7 5.2-2.9 9.9-3.5 15.1-0.9 16.6 0 33.4-2.7 49.9 2.4 15.9 2.3 32.1 3 48.1 0.4 13.5 4.7 26.4 6.1 39.8 5.2 12.7 16.3 25.5 31.5 24.7 25.9 0.3 51.9-1.4 77.9-0.7 21.3 0.7 42.7-1.2 64 0 10-0.9 20-0.8 30-0.2 36 0.2 72 0 108 0 17.9-0.5 36 1 53.5-3.4 3.3-4.1 6.3-8.8 6.1-14.2 0-6.9 1.9-13.5 3.1-20.1 0.8-18-0.1-36 0.5-54-0.2-20.6 1-41.4-1.9-61.9-0.5-8.4-0.2-17-1.7-25.3-13.3-0.1-26.8-0.9-40 1.6-13.2 0.7-26.6 0.9-39.7-1.3-25.3-0.8-50.6-1-75.9-1.1-13.4-0.1-26.5-4.1-39.9-2.9-5.9 1-11.8 3.3-17.8 1.9-5.3-1.4-10.8-2.5-16.3-2.1-7.7-0.6-14.3 4.4-21.9 3.7zm-1352.2-1552.2c1.5-8.6 10.1-9.9 17.4-9.6q-0.3 4.8-0.5 9.6c-5.7 0-11.3 0.2-16.9 0zm24.3-9.1c5.1-2.4 8.3 2.8 7.2 7.4-3.6 1.1-7.5 1.6-11 0.1q-0.5-5.1 3.8-7.5zm15.2 0.9c6.3-0.3 11.4 2.7 14.8 7.9-6 0.1-11.9 0.1-17.9 0.2q1.5-4.1 3.1-8.1zm657.6 1166.4c8.7-1.8 15.1 4.2 19.8 10.7-3.7 0-7.4 0.3-11-0.5-3.5-2.9-6.1-6.7-8.8-10.2zm-14.9 10.6c-0.3-6.4 4.9-9.9 10.9-8.1-2.1 4.5-5.4 8.7-10.9 8.1z"/>
	</g>
</svg>