<svg width="66" height="63" viewBox="0 0 66 63" fill="none" xmlns="http://www.w3.org/2000/svg">
<path d="M9.69231 9C9.24348 9 8.81303 9.1783 8.49567 9.49567C8.1783 9.81303 8 10.2435 8 10.6923C8 11.1411 8.1783 11.5716 8.49567 11.8889C8.81303 12.2063 9.24348 12.3846 9.69231 12.3846C10.1411 12.3846 10.5716 12.2063 10.8889 11.8889C11.2063 11.5716 11.3846 11.1411 11.3846 10.6923C11.3846 10.2435 11.2063 9.81303 10.8889 9.49567C10.5716 9.1783 10.1411 9 9.69231 9Z" fill="#78A0CF"/>
<path d="M57.719 7.40153C57.8003 7.19235 57.7951 6.95945 57.7046 6.75407C57.6142 6.5487 57.4458 6.38768 57.2366 6.30642C57.0275 6.22517 56.7946 6.23034 56.5892 6.3208C56.3838 6.41126 56.2228 6.5796 56.1415 6.78879C56.0603 6.99798 56.0655 7.23088 56.1559 7.43625C56.2464 7.64162 56.4147 7.80265 56.6239 7.8839C56.8331 7.96516 57.066 7.95999 57.2714 7.86952C57.4767 7.77906 57.6378 7.61072 57.719 7.40153Z" fill="#F1BC19"/>
<path d="M34.3077 0C26.0044 0 18.0411 3.29848 12.1698 9.16981C6.29848 15.0411 3 23.0044 3 31.3077C3 39.611 6.29848 47.5742 12.1698 53.4456C18.0411 59.3169 26.0044 62.6154 34.3077 62.6154C42.611 62.6154 50.5742 59.3169 56.4456 53.4456C62.3169 47.5742 65.6154 39.611 65.6154 31.3077C65.6154 23.0044 62.3169 15.0411 56.4456 9.16981C50.5742 3.29848 42.611 0 34.3077 0Z" fill="white"/>
<path d="M56.6694 12.4404C56.9944 11.6036 56.9737 10.672 56.6119 9.85053C56.25 9.02903 55.5767 8.38493 54.7399 8.05991C53.9032 7.73489 52.9716 7.75558 52.1501 8.11743C51.3286 8.47927 50.6845 9.15264 50.3595 9.98939C50.0345 10.8261 50.0552 11.7577 50.417 12.5792C50.7788 13.4007 51.4522 14.0448 52.289 14.3698C53.1257 14.6949 54.0573 14.6742 54.8788 14.3123C55.7003 13.9505 56.3444 13.2771 56.6694 12.4404Z" fill="#F1BC19"/>
<path d="M46.7677 12.2252C46.9303 11.8068 46.9199 11.341 46.739 10.9303C46.5581 10.5195 46.2214 10.1975 45.803 10.035C45.3846 9.87245 44.9188 9.88279 44.5081 10.0637C44.0973 10.2446 43.7753 10.5813 43.6128 10.9997C43.4503 11.4181 43.4606 11.8839 43.6415 12.2946C43.8225 12.7054 44.1591 13.0274 44.5775 13.1899C44.9959 13.3524 45.4617 13.3421 45.8724 13.1612C46.2832 12.9802 46.6052 12.6436 46.7677 12.2252Z" fill="#78A0CF"/>
<path d="M59.2308 46.6923C58.7819 46.6923 58.3515 46.8706 58.0341 47.188C57.7167 47.5053 57.5384 47.9358 57.5384 48.3846C57.5384 48.8334 57.7167 49.2639 58.0341 49.5813C58.3515 49.8986 58.7819 50.0769 59.2308 50.0769C59.6796 50.0769 60.11 49.8986 60.4274 49.5813C60.7448 49.2639 60.9231 48.8334 60.9231 48.3846C60.9231 47.9358 60.7448 47.5053 60.4274 47.188C60.11 46.8706 59.6796 46.6923 59.2308 46.6923ZM3.38461 34C2.48696 34 1.62607 34.3566 0.99133 34.9913C0.356592 35.6261 0 36.487 0 37.3846C0 38.2823 0.356592 39.1432 0.99133 39.7779C1.62607 40.4126 2.48696 40.7692 3.38461 40.7692C4.28227 40.7692 5.14316 40.4126 5.7779 39.7779C6.41264 39.1432 6.76923 38.2823 6.76923 37.3846C6.76923 36.487 6.41264 35.6261 5.7779 34.9913C5.14316 34.3566 4.28227 34 3.38461 34Z" fill="#FBCD59"/>
<path d="M16.6923 54C16.2435 54 15.813 54.1783 15.4957 54.4957C15.1783 54.813 15 55.2435 15 55.6923C15 56.1411 15.1783 56.5716 15.4957 56.889C15.813 57.2063 16.2435 57.3846 16.6923 57.3846C17.1411 57.3846 17.5716 57.2063 17.8889 56.889C18.2063 56.5716 18.3846 56.1411 18.3846 55.6923C18.3846 55.2435 18.2063 54.813 17.8889 54.4957C17.5716 54.1783 17.1411 54 16.6923 54Z" fill="#78A0CF"/>
<path d="M8.34622 29C7.78518 29 7.24713 29.2229 6.85042 29.6196C6.45371 30.0163 6.23083 30.5543 6.23083 31.1154C6.23083 31.6764 6.45371 32.2145 6.85042 32.6112C7.24713 33.0079 7.78518 33.2308 8.34622 33.2308C8.90725 33.2308 9.44531 33.0079 9.84202 32.6112C10.2387 32.2145 10.4616 31.6764 10.4616 31.1154C10.4616 30.5543 10.2387 30.0163 9.84202 29.6196C9.44531 29.2229 8.90725 29 8.34622 29Z" fill="#B8DDFF"/>
<path d="M10.4615 41.6924C10.2371 41.6924 10.0219 41.7815 9.86319 41.9402C9.7045 42.0989 9.61536 42.3141 9.61536 42.5385C9.61536 42.763 9.7045 42.9782 9.86319 43.1369C10.0219 43.2955 10.2371 43.3847 10.4615 43.3847C10.6859 43.3847 10.9011 43.2955 11.0598 43.1369C11.2185 42.9782 11.3077 42.763 11.3077 42.5385C11.3077 42.3141 11.2185 42.0989 11.0598 41.9402C10.9011 41.7815 10.6859 41.6924 10.4615 41.6924Z" fill="#F1BC19"/>
<path d="M59.3846 16.6155C59.1602 16.6155 58.945 16.7046 58.7863 16.8633C58.6276 17.022 58.5385 17.2372 58.5385 17.4616C58.5385 17.686 58.6276 17.9013 58.7863 18.06C58.945 18.2186 59.1602 18.3078 59.3846 18.3078C59.609 18.3078 59.8242 18.2186 59.9829 18.06C60.1416 17.9013 60.2308 17.686 60.2308 17.4616C60.2308 17.2372 60.1416 17.022 59.9829 16.8633C59.8242 16.7046 59.609 16.6155 59.3846 16.6155Z" fill="white"/>
<path d="M34.1445 46.0986C41.7332 46.0986 47.885 39.9468 47.885 32.3581C47.885 24.7695 41.7332 18.6177 34.1445 18.6177C26.5559 18.6177 20.4041 24.7695 20.4041 32.3581C20.4041 39.9468 26.5559 46.0986 34.1445 46.0986Z" fill="#FFEFA1"/>
<path d="M34.1445 47.2889C43.0608 47.2889 50.2889 40.0608 50.2889 31.1445C50.2889 22.2281 43.0608 15 34.1445 15C25.2281 15 18 22.2281 18 31.1445C18 40.0608 25.2281 47.2889 34.1445 47.2889Z" fill="#CC2929"/>
<path d="M34.1446 47.1321C42.5262 47.1321 49.3209 40.3374 49.3209 31.9557C49.3209 23.5741 42.5262 16.7794 34.1446 16.7794C25.7629 16.7794 18.9683 23.5741 18.9683 31.9557C18.9683 40.3374 25.7629 47.1321 34.1446 47.1321Z" fill="#FF4638"/>
<path d="M34.1445 45.0485C41.3755 45.0485 47.2373 39.1866 47.2373 31.9556C47.2373 24.7247 41.3755 18.8628 34.1445 18.8628C26.9135 18.8628 21.0516 24.7247 21.0516 31.9556C21.0516 39.1866 26.9135 45.0485 34.1445 45.0485Z" fill="#FAFAFA"/>
<path d="M34.2425 33.4113C35.0463 33.4113 35.698 32.7597 35.698 31.9559C35.698 31.152 35.0463 30.5004 34.2425 30.5004C33.4386 30.5004 32.787 31.152 32.787 31.9559C32.787 32.7597 33.4386 33.4113 34.2425 33.4113Z" fill="#563428"/>
<path d="M34.1446 22.1009C33.8797 22.1009 33.6638 21.8851 33.6638 21.6201V20.181C33.6638 19.9161 33.8797 19.7002 34.1446 19.7002C34.4095 19.7002 34.6254 19.9161 34.6254 20.181V21.6201C34.6254 21.8851 34.4095 22.1009 34.1446 22.1009ZM34.1446 44.208C33.8797 44.208 33.6638 43.9921 33.6638 43.7272V42.2881C33.6638 42.0231 33.8797 41.8073 34.1446 41.8073C34.4095 41.8073 34.6254 42.0231 34.6254 42.2881V43.7272C34.6254 43.9921 34.4095 44.208 34.1446 44.208ZM45.9161 32.4333H44.4769C44.212 32.4333 43.9961 32.2174 43.9961 31.9525C43.9961 31.6875 44.212 31.4717 44.4769 31.4717H45.9161C46.181 31.4717 46.3969 31.6875 46.3969 31.9525C46.3969 32.2207 46.181 32.4333 45.9161 32.4333ZM23.8123 32.4333H22.3731C22.1082 32.4333 21.8923 32.2174 21.8923 31.9525C21.8923 31.6875 22.1082 31.4717 22.3731 31.4717H23.8123C24.0772 31.4717 24.2931 31.6875 24.2931 31.9525C24.2931 32.2207 24.0772 32.4333 23.8123 32.4333Z" fill="#B2947C"/>
<path d="M34.1444 22.1009C33.8795 22.1009 33.6636 21.8851 33.6636 21.6201V20.181C33.6636 19.9161 33.8795 19.7002 34.1444 19.7002C34.4093 19.7002 34.6252 19.9161 34.6252 20.181V21.6201C34.6252 21.8851 34.4093 22.1009 34.1444 22.1009ZM34.1444 44.208C33.8795 44.208 33.6636 43.9921 33.6636 43.7272V42.2881C33.6636 42.0231 33.8795 41.8073 34.1444 41.8073C34.4093 41.8073 34.6252 42.0231 34.6252 42.2881V43.7272C34.6252 43.9921 34.4093 44.208 34.1444 44.208ZM28.5612 23.2457L27.8417 21.9995C27.7076 21.7706 27.7861 21.4762 28.0183 21.3421C28.2472 21.208 28.5416 21.2865 28.6757 21.5187L29.3953 22.7649C29.5294 22.9938 29.4509 23.2882 29.2187 23.4223C28.9897 23.5532 28.6953 23.4747 28.5612 23.2457ZM39.6164 42.3895L38.8968 41.1433C38.7627 40.9143 38.8445 40.62 39.0735 40.4859C39.3024 40.3518 39.5968 40.4335 39.7309 40.6625L40.4504 41.9086C40.5845 42.1376 40.5028 42.432 40.2738 42.5661C40.0416 42.6969 39.7472 42.6184 39.6164 42.3895Z" fill="#B2947C"/>
<path d="M28.5613 23.2457L27.8418 21.9996C27.7077 21.7706 27.7862 21.4763 28.0184 21.3422C28.2474 21.2081 28.5417 21.2866 28.6758 21.5188L29.3954 22.7649C29.5295 22.9939 29.451 23.2883 29.2188 23.4224C28.9898 23.5532 28.6954 23.4747 28.5613 23.2457ZM39.6165 42.3895L38.8969 41.1433C38.7628 40.9144 38.8446 40.62 39.0736 40.4859C39.3025 40.3518 39.5969 40.4336 39.731 40.6625L40.4506 41.9087C40.5847 42.1376 40.5029 42.432 40.2739 42.5661C40.0417 42.6969 39.7473 42.6184 39.6165 42.3895ZM24.957 27.2034L23.7108 26.4838C23.4819 26.3497 23.4034 26.0586 23.5342 25.8264C23.6683 25.5974 23.9594 25.5189 24.1916 25.6497L25.4378 26.3693C25.6667 26.5034 25.7452 26.7945 25.6144 27.0267C25.4803 27.259 25.1859 27.3375 24.957 27.2034ZM44.1007 38.2552L42.8546 37.5357C42.6256 37.4016 42.5471 37.1105 42.6779 36.8783C42.812 36.6493 43.1031 36.5708 43.3354 36.7016L44.5815 37.4212C44.8105 37.5553 44.889 37.8464 44.7581 38.0786C44.624 38.3109 44.3297 38.3893 44.1007 38.2552ZM39.0703 23.4224C38.8413 23.2883 38.7628 22.9972 38.8937 22.7649L39.6132 21.5188C39.7473 21.2898 40.0384 21.2113 40.2707 21.3422C40.4996 21.4763 40.5781 21.7674 40.4473 21.9996L39.7277 23.2457C39.5936 23.4747 39.3025 23.5532 39.0703 23.4224ZM28.0184 42.5661C27.7894 42.432 27.7109 42.1409 27.8418 41.9087L28.5613 40.6625C28.6954 40.4336 28.9865 40.3551 29.2188 40.4859C29.4477 40.62 29.5262 40.9111 29.3954 41.1433L28.6758 42.3895C28.5417 42.6184 28.2474 42.6969 28.0184 42.5661ZM42.6779 27.0267C42.5438 26.7978 42.6223 26.5034 42.8546 26.3693L44.1007 25.6497C44.3297 25.5156 44.624 25.5974 44.7581 25.8264C44.8922 26.0553 44.8105 26.3497 44.5815 26.4838L43.3354 27.2034C43.1031 27.3375 42.8088 27.259 42.6779 27.0267ZM23.5342 38.0819C23.4001 37.8529 23.4819 37.5586 23.7108 37.4245L24.957 36.7049C25.1859 36.5708 25.4803 36.6526 25.6144 36.8815C25.7485 37.1105 25.6667 37.4049 25.4378 37.539L24.1916 38.2585C23.9594 38.3894 23.665 38.3109 23.5342 38.0819Z" fill="#B2947C"/>
<path d="M28.8427 28.9434L34.1446 31.9557" stroke="#563428" stroke-width="1.63538" stroke-miterlimit="10" stroke-linecap="round"/>
<path d="M41.7229 27.6089L34.3866 31.9557" stroke="#563428" stroke-width="1.14477" stroke-miterlimit="10" stroke-linecap="round"/>
</svg>
